<?xml version="1.0" encoding="UTF-8"?>
<svg version="1.1" xmlns="http://www.w3.org/2000/svg" width="500" height="500">
<path d="M0 0 C5.45980745 -0.64777377 8.47232068 -0.17156391 13.33029556 2.68185043 C16.15358853 4.91070143 17.06846074 7.90375036 18.09521484 11.21728516 C18.33579306 11.92183146 18.57637127 12.62637775 18.82423973 13.35227394 C19.57276111 15.56119 20.28677001 17.77947571 21 20 C21.45556128 21.35524972 21.91360832 22.70966679 22.37432861 24.06317139 C23.53203338 27.48402323 24.65766791 30.91442083 25.77162552 34.34974289 C26.50074709 36.59801142 27.23441768 38.84475518 27.96908569 41.09121704 C29.52491883 45.85122299 31.07533079 50.61298436 32.625 55.375 C34.43128885 60.92493544 36.23991917 66.47408867 38.053936 72.02150345 C38.77000919 74.21507094 39.48211176 76.40989944 40.19400024 78.60482788 C42.55232006 85.84079073 45.03158884 92.98614817 48 100 C48.25563217 99.24119034 48.51126434 98.48238068 48.77464294 97.70057678 C51.22687042 90.42300395 53.68163996 83.14629528 56.13902187 75.87046146 C57.40121417 72.13307948 58.6625407 68.39541074 59.92163086 64.65698242 C63.03148168 55.42517907 66.16411447 46.20149367 69.32143402 36.98581696 C69.98580868 35.04153077 70.64577608 33.09580271 71.30450439 31.14959717 C72.49153358 27.65559173 73.69763323 24.16881997 74.91015625 20.68359375 C75.25292099 19.66435318 75.59568573 18.64511261 75.94883728 17.59498596 C78.07239334 11.57748279 80.03162901 6.9841855 86 4 C90.61200214 3.43733574 94.12734709 3.59599402 98.375 5.5625 C101.44129459 8.40977354 103.31836349 10.87025544 104 15 C103.28766724 22.94453698 100.28135891 30.61363174 97.703125 38.09765625 C97.27295906 39.36100551 96.84335143 40.62454498 96.41426086 41.88825989 C95.27016352 45.25270558 94.11845563 48.61449779 92.96513748 51.97579193 C91.76133496 55.48838147 90.56449795 59.00334294 89.36694336 62.51806641 C87.45846073 68.11666949 85.54602376 73.71390501 83.63037109 79.31005859 C81.40754159 85.80398693 79.19472217 92.30126741 76.98828125 98.80078125 C74.50241229 106.12235254 71.99863366 113.43754819 69.48141479 120.74839783 C67.69615034 125.94307901 65.94256662 131.14771092 64.20213318 136.35757446 C62.95014838 140.09420608 61.68247864 143.82540269 60.41183472 147.5557251 C59.81182973 149.3286104 59.21847836 151.1037638 58.63235474 152.88128662 C57.82458042 155.3282616 56.99328102 157.76603008 56.15625 160.203125 C55.92550278 160.92188812 55.69475555 161.64065125 55.45701599 162.38119507 C53.62114866 167.60889203 51.40797107 169.90151601 47 173 C43.19108109 174.45635135 39.83918841 174.31469565 36 172.875 C35.01 172.25625 34.02 171.6375 33 171 C32.34902344 170.70480469 31.69804687 170.40960938 31.02734375 170.10546875 C21.79698538 165.49891607 20.04732852 154.34145314 16.96972656 145.20556641 C15.85070315 141.84060375 14.74506757 138.47133418 13.640625 135.1015625 C13.0451056 133.29453278 12.44929548 131.48759884 11.85321045 129.68075562 C10.61311619 125.91821257 9.37637412 122.15458955 8.14208984 118.39013672 C6.56242307 113.57314961 4.97452018 108.75892472 3.38415909 103.94545937 C2.15589124 100.22501355 0.93185348 96.50318676 -0.29090118 92.78092575 C-0.87490873 91.00474541 -1.46019602 89.22898531 -2.04680634 87.45366287 C-2.86459163 84.97651351 -3.67668145 82.49756722 -4.48730469 80.01806641 C-4.72832413 79.29173004 -4.96934357 78.56539368 -5.21766663 77.81704712 C-6.49188437 73.89725128 -7.43945011 70.08431277 -8 66 C-8.66 66 -9.32 66 -10 66 C-10.09313477 66.93884033 -10.18626953 67.87768066 -10.28222656 68.8449707 C-11.01545104 73.93499595 -12.79324987 78.64269519 -14.484375 83.48046875 C-17.74133084 93.02356449 -20.74522633 102.62453183 -23.578125 112.30078125 C-23.76943497 112.95322689 -23.96074493 113.60567253 -24.15785217 114.27788925 C-25.52801828 118.95431677 -26.88961025 123.63322109 -28.25 128.3125 C-29.62697541 133.04541344 -31.00712973 137.77737445 -32.39272308 142.50777245 C-32.93408032 144.3605997 -33.4709375 146.21473995 -34.00762939 148.06892395 C-39.67749399 167.45707632 -39.67749399 167.45707632 -43.25 171.625 C-46.74636927 173.37318464 -50.06798887 174.40958449 -54 174 C-54.78503906 173.51660156 -55.57007813 173.03320312 -56.37890625 172.53515625 C-59.44070081 170.74188462 -61.41858709 170.60869229 -64.9375 170.5 C-70.76403049 170.12824591 -74.72434505 169.32698118 -78.92675781 165.02978516 C-81.77105226 160.87320318 -83.12740494 156.54105925 -84.671875 151.7734375 C-84.99915588 150.78880524 -85.32643677 149.80417297 -85.66363525 148.78970337 C-86.35086698 146.71528014 -87.03303836 144.63917444 -87.71044922 142.56152344 C-88.7498012 139.37560937 -89.80517234 136.19535276 -90.86328125 133.015625 C-91.52958908 130.99770704 -92.19498542 128.97948784 -92.859375 126.9609375 C-93.17493347 126.00778656 -93.49049194 125.05463562 -93.81561279 124.07260132 C-94.10301331 123.18803253 -94.39041382 122.30346375 -94.68652344 121.39208984 C-94.94093201 120.61441254 -95.19534058 119.83673523 -95.4574585 119.03549194 C-96 117 -96 117 -96 114 C-114.24765534 115.38189315 -114.24765534 115.38189315 -131 122 C-136.93529703 129.15792817 -138.14966536 138.5864708 -139.46142578 147.546875 C-140.16060369 152.02972738 -141.3873052 156.20449013 -142.8125 160.5 C-143.14894531 161.6653125 -143.48539063 162.830625 -143.83203125 164.03125 C-145.5583986 168.41934094 -147.54765395 171.28996415 -151.8125 173.375 C-155.54399656 174.10666599 -158.30529016 173.85262535 -162 173 C-162.66 172.34 -163.32 171.68 -164 171 C-165.59169841 170.53798489 -167.19865592 170.12745079 -168.8125 169.75 C-172.13596765 168.7736412 -174.67943108 167.93945091 -177.125 165.4375 C-180.65272589 158.97000254 -179.32067917 152.51631417 -177.42138672 145.61328125 C-176.68818366 143.17542377 -175.93997894 140.74204579 -175.1796875 138.3125 C-174.76761259 136.95916425 -174.35685309 135.6054274 -173.94729614 134.25132751 C-172.83689068 130.59175178 -171.71005231 126.93743308 -170.57989502 123.28391647 C-169.39317997 119.43886439 -168.2201036 115.58966317 -167.046875 111.74047852 C-166.80843494 110.95820043 -166.56999489 110.17592234 -166.32432938 109.36993885 C-165.83604278 107.76781845 -165.34781928 106.16567881 -164.85965729 104.56352043 C-164.11065547 102.10748724 -163.35971086 99.65205381 -162.60858154 97.19667053 C-159.20385795 86.05108075 -155.89332443 74.88040194 -152.63934708 63.68992233 C-151.88861466 61.10978477 -151.13563516 58.53031452 -150.38180542 55.95108032 C-150.13630259 55.1109823 -149.89079975 54.27088428 -149.63785744 53.40532875 C-149.14718927 51.72642731 -148.65646579 50.04754204 -148.16568565 48.36867332 C-146.96342181 44.25204055 -145.76714837 40.13383057 -144.58294678 36.01196289 C-143.46753101 32.13018485 -142.33708547 28.25309548 -141.19549179 24.37893867 C-140.77900088 22.9550247 -140.36820503 21.52943046 -139.96359634 20.10209465 C-139.40870834 18.14699297 -138.83179945 16.19818157 -138.25390625 14.24975586 C-137.77932983 12.61120888 -137.77932983 12.61120888 -137.29516602 10.93955994 C-135.49767779 6.85990967 -132.79439885 4.26686099 -129.1796875 1.71484375 C-125.86179906 0.62671905 -122.58059973 0.59103247 -119.125 0.5625 C-118.43019531 0.52962891 -117.73539063 0.49675781 -117.01953125 0.46289062 C-113.05744045 0.42185202 -110.54151749 0.96628183 -107.4921875 3.40234375 C-105 6 -105 6 -105 8 C-103.783125 7.773125 -102.56625 7.54625 -101.3125 7.3125 C-98.20016087 6.9220829 -97.1496188 6.93350276 -94.1875 8.25 C-89.89369107 11.68504714 -88.38709825 14.10425898 -86.64453125 19.4453125 C-86.31617531 20.43880959 -86.31617531 20.43880959 -85.98118591 21.45237732 C-85.24948268 23.6738019 -84.53092303 25.89924824 -83.8125 28.125 C-83.29924433 29.69417184 -82.78522827 31.26309514 -82.27050781 32.83178711 C-81.13786415 36.28879415 -80.01097431 39.74761736 -78.88720703 43.20751953 C-77.19534661 48.41021211 -75.48409829 53.60637036 -73.7688446 58.8013916 C-72.2901851 63.28067645 -70.81584784 67.76137668 -69.34237671 72.24237061 C-68.61400624 74.45615288 -67.88453386 76.6695729 -67.15396118 78.88262939 C-66.12426775 82.00495964 -65.10043164 85.1291509 -64.078125 88.25390625 C-63.76620712 89.19608505 -63.45428925 90.13826385 -63.13291931 91.10899353 C-62.85090164 91.97480545 -62.56888397 92.84061737 -62.27832031 93.73266602 C-61.90625458 94.86551781 -61.90625458 94.86551781 -61.52667236 96.02125549 C-61 98 -61 98 -61 101 C-60.34 101 -59.68 101 -59 101 C-58.85930084 100.17822266 -58.85930084 100.17822266 -58.71575928 99.33984375 C-57.24986777 91.39581378 -54.96519328 83.72430692 -52.640625 76 C-52.20913939 74.55535059 -51.77797323 73.11060573 -51.34710693 71.66577148 C-50.44550496 68.64595212 -49.54083753 65.6270745 -48.63378906 62.60888672 C-47.48804186 58.79595553 -46.34882116 54.98111308 -45.21154022 51.16564941 C-42.87107026 43.31570313 -40.50640661 35.47352319 -38.11108398 27.64013672 C-37.41890091 25.37240443 -36.73082894 23.10340812 -36.04907227 20.83251953 C-35.27367983 18.25765661 -34.47778681 15.69043971 -33.671875 13.125 C-33.36446381 12.08291382 -33.36446381 12.08291382 -33.05084229 11.01977539 C-31.63551545 6.64458847 -29.85933578 4.4761953 -26 2 C-22.41786361 0.80595454 -19.46378742 0.831176 -15.6875 0.8125 C-13.74423828 0.79123047 -13.74423828 0.79123047 -11.76171875 0.76953125 C-8.1337412 0.99180609 -5.3667272 1.67940778 -2 3 C-1.34 2.01 -0.68 1.02 0 0 Z M-114 62 C-115.28734407 65.93088838 -116.56892842 69.86360274 -117.84521484 73.7980957 C-118.28015954 75.13617501 -118.71667209 76.47374574 -119.15478516 77.81079102 C-119.78440139 79.73319069 -120.40790843 81.65758784 -121.03125 83.58203125 C-121.40830078 84.73936768 -121.78535156 85.8967041 -122.17382812 87.08911133 C-123.13651849 89.97669166 -123.13651849 89.97669166 -123 93 C-113.83986949 91.66512189 -113.83986949 91.66512189 -105 89 C-106.31235852 82.63569826 -108.01219415 76.57878972 -110.125 70.4375 C-110.40214844 69.61958984 -110.67929688 68.80167969 -110.96484375 67.95898438 C-111.63905137 65.97123432 -112.31892204 63.98540651 -113 62 C-113.33 62 -113.66 62 -114 62 Z " fill="#5C17E8" transform="translate(232,163)"/>
<path d="M0 0 C0.69480469 -0.03287109 1.38960937 -0.06574219 2.10546875 -0.09960938 C6.06755955 -0.14064798 8.58348251 0.40378183 11.6328125 2.83984375 C14.125 5.4375 14.125 5.4375 14.125 7.4375 C15.341875 7.210625 16.55875 6.98375 17.8125 6.75 C20.92483913 6.3595829 21.9753812 6.37100276 24.9375 7.6875 C29.19621472 11.09447178 30.7184915 13.48266523 32.4453125 18.77734375 C32.66148224 19.4312912 32.87765198 20.08523865 33.10037231 20.75900269 C33.82589773 22.9615008 34.53814986 25.16804723 35.25 27.375 C35.76070035 28.9392726 36.27211294 30.50331283 36.78417969 32.06713867 C37.6223491 34.62933488 38.45905845 37.19197101 39.29199219 39.75587463 C41.33751545 46.05027071 43.4175768 52.33249477 45.51425171 58.61003113 C47.08620485 63.31953384 48.64914224 68.03200361 50.21087646 72.74490356 C50.985182 75.07628462 51.76271581 77.40659604 52.54351807 79.73580933 C53.6483031 83.03552311 54.7396688 86.33940111 55.828125 89.64453125 C56.16192169 90.63170135 56.49571838 91.61887146 56.83963013 92.63595581 C59.19073244 99.84071917 60.34726354 105.37016257 56.97167969 112.48144531 C55.26188437 116.43152608 54.33522466 120.65682173 53.25 124.8125 C50.26865525 136.05414473 50.26865525 136.05414473 48.625 141.41015625 C48.39280762 142.16828613 48.16061523 142.92641602 47.92138672 143.70751953 C47.48834298 145.1055422 47.04780452 146.50127588 46.59814453 147.89404297 C45.27079774 152.19886247 44.68937743 155.94315008 45.125 160.4375 C46.34792887 162.9029043 46.34792887 162.9029043 48.125 164.875 C48.681875 165.55433594 49.23875 166.23367188 49.8125 166.93359375 C50.245625 167.42988281 50.67875 167.92617188 51.125 168.4375 C47.20551191 168.90410573 45.48813049 168.67432423 42.13769531 166.48925781 C38.30230308 163.10831147 37.0682746 159.06362331 35.546875 154.296875 C35.2493634 153.41525696 34.95185181 152.53363892 34.64532471 151.62530518 C33.70369057 148.81839063 32.78964351 146.00330917 31.875 143.1875 C31.24646321 141.31063731 30.61627026 139.43432839 29.984375 137.55859375 C29.3787238 135.74268195 28.77451 133.92628999 28.171875 132.109375 C27.89478699 131.27468689 27.61769897 130.43999878 27.33221436 129.58001709 C25.60207029 124.2455287 24.2662257 118.92887433 23.125 113.4375 C4.87734466 114.81939315 4.87734466 114.81939315 -11.875 121.4375 C-17.81029703 128.59542817 -19.02466536 138.0239708 -20.33642578 146.984375 C-21.03560369 151.46722738 -22.2623052 155.64199013 -23.6875 159.9375 C-24.02394531 161.1028125 -24.36039063 162.268125 -24.70703125 163.46875 C-26.4333986 167.85684094 -28.42265395 170.72746415 -32.6875 172.8125 C-36.41899656 173.54416599 -39.18029016 173.29012535 -42.875 172.4375 C-43.535 171.7775 -44.195 171.1175 -44.875 170.4375 C-46.46669841 169.97548489 -48.07365592 169.56495079 -49.6875 169.1875 C-53.01096765 168.2111412 -55.55443108 167.37695091 -58 164.875 C-61.52772589 158.40750254 -60.19567917 151.95381417 -58.29638672 145.05078125 C-57.56318366 142.61292377 -56.81497894 140.17954579 -56.0546875 137.75 C-55.64261259 136.39666425 -55.23185309 135.0429274 -54.82229614 133.68882751 C-53.71189068 130.02925178 -52.58505231 126.37493308 -51.45489502 122.72141647 C-50.26817997 118.87636439 -49.0951036 115.02716317 -47.921875 111.17797852 C-47.68343494 110.39570043 -47.44499489 109.61342234 -47.19932938 108.80743885 C-46.71104278 107.20531845 -46.22281928 105.60317881 -45.73465729 104.00102043 C-44.98565547 101.54498724 -44.23471086 99.08955381 -43.48358154 96.63417053 C-40.07885795 85.48858075 -36.76832443 74.31790194 -33.51434708 63.12742233 C-32.76361466 60.54728477 -32.01063516 57.96781452 -31.25680542 55.38858032 C-31.01130259 54.5484823 -30.76579975 53.70838428 -30.51285744 52.84282875 C-30.02218927 51.16392731 -29.53146579 49.48504204 -29.04068565 47.80617332 C-27.83842181 43.68954055 -26.64214837 39.57133057 -25.45794678 35.44946289 C-24.34253101 31.56768485 -23.21208547 27.69059548 -22.07049179 23.81643867 C-21.65400088 22.3925247 -21.24320503 20.96693046 -20.83859634 19.53959465 C-20.28370834 17.58449297 -19.70679945 15.63568157 -19.12890625 13.68725586 C-18.65432983 12.04870888 -18.65432983 12.04870888 -18.17016602 10.37705994 C-16.37267779 6.29740967 -13.66939885 3.70436099 -10.0546875 1.15234375 C-6.73679906 0.06421905 -3.45559973 0.02853247 0 0 Z M5.125 61.4375 C3.83765593 65.36838838 2.55607158 69.30110274 1.27978516 73.2355957 C0.84484046 74.57367501 0.40832791 75.91124574 -0.02978516 77.24829102 C-0.65940139 79.17069069 -1.28290843 81.09508784 -1.90625 83.01953125 C-2.28330078 84.17686768 -2.66035156 85.3342041 -3.04882812 86.52661133 C-4.01151849 89.41419166 -4.01151849 89.41419166 -3.875 92.4375 C5.28513051 91.10262189 5.28513051 91.10262189 14.125 88.4375 C12.81264148 82.07319826 11.11280585 76.01628972 9 69.875 C8.72285156 69.05708984 8.44570312 68.23917969 8.16015625 67.39648438 C7.48594863 65.40873432 6.80607796 63.42290651 6.125 61.4375 C5.795 61.4375 5.465 61.4375 5.125 61.4375 Z " fill="#8B52FB" transform="translate(112.875,163.5625)"/>
<path d="M0 0 C3.58211981 2.21024414 5.39606316 4.15694322 7 8 C7.24050903 9.99957275 7.24050903 9.99957275 7.22705078 12.12597656 C7.22689972 12.92650452 7.22674866 13.72703247 7.22659302 14.55181885 C7.21627045 15.40612488 7.20594788 16.26043091 7.1953125 17.140625 C7.1924826 18.02280701 7.18965271 18.90498901 7.18673706 19.81390381 C7.17555961 22.62607499 7.15045951 25.4379254 7.125 28.25 C7.11496705 30.15884956 7.10584175 32.06770412 7.09765625 33.9765625 C7.07562824 38.65116489 7.04111511 43.32552809 7 48 C8.15000488 47.98428955 9.30000977 47.9685791 10.48486328 47.95239258 C14.76750637 47.89793132 19.05011906 47.86359114 23.33300781 47.83520508 C25.18364619 47.82015529 27.03424911 47.79971067 28.88476562 47.77368164 C31.55087045 47.7371302 34.21650208 47.72023546 36.8828125 47.70703125 C38.11597702 47.68380547 38.11597702 47.68380547 39.37405396 47.66011047 C44.33861008 47.65866891 47.68200421 48.27645037 52 51 C54.99783249 54.53008473 56.35983657 58.57003798 56.0625 63.1875 C54.68531681 68.12915732 52.52544777 70.24260078 48.38964844 73.12060547 C44.66515498 74.49122515 41.01323608 74.24410982 37.078125 74.1953125 C36.21813904 74.1924826 35.35815308 74.18965271 34.47210693 74.18673706 C31.73126179 74.1755615 28.99074602 74.15046179 26.25 74.125 C24.38932764 74.1149668 22.52865015 74.10584155 20.66796875 74.09765625 C16.11185268 74.07563076 11.55598214 74.04111897 7 74 C7.01571045 75.15000488 7.0314209 76.30000977 7.04760742 77.48486328 C7.10206868 81.76750637 7.13640886 86.05011906 7.16479492 90.33300781 C7.17984471 92.18364619 7.20028933 94.03424911 7.22631836 95.88476562 C7.2628698 98.55087045 7.27976454 101.21650208 7.29296875 103.8828125 C7.30845261 104.70492218 7.32393646 105.52703186 7.33988953 106.37405396 C7.34133134 111.33948372 6.72836525 114.6847411 4 119 C0.2525123 122.406807 -3.68477675 122.57050252 -8.55859375 122.41796875 C-12.65677189 121.71636065 -14.2477821 120.09624514 -17 117 C-19.43602605 112.47364942 -19.2594387 108.20253279 -19.1953125 103.19921875 C-19.1924826 102.36284378 -19.18965271 101.52646881 -19.18673706 100.66474915 C-19.1755832 98.00551774 -19.15048763 95.34662882 -19.125 92.6875 C-19.11496399 90.87956217 -19.10583923 89.07161904 -19.09765625 87.26367188 C-19.07565959 82.84231688 -19.04116294 78.42121642 -19 74 C-20.14476807 74.02094727 -21.28953613 74.04189453 -22.46899414 74.06347656 C-26.73855963 74.13617801 -31.00807099 74.18190879 -35.27807617 74.21972656 C-37.12191994 74.23977361 -38.96570068 74.2670188 -40.80932617 74.30175781 C-43.4680949 74.35058208 -46.12601915 74.37303772 -48.78515625 74.390625 C-49.60210464 74.41127014 -50.41905304 74.43191528 -51.26075745 74.45318604 C-56.99507643 74.45540636 -60.28946599 73.31159329 -65 70 C-67.65103517 66.43767148 -68.21793805 63.76631299 -67.9375 59.4375 C-67.29349154 55.32415564 -66.13215728 52.87114417 -63 50 C-58.41304597 47.53371015 -54.04813894 47.74145382 -48.98046875 47.8046875 C-47.69261223 47.80893234 -47.69261223 47.80893234 -46.3787384 47.81326294 C-43.64818125 47.8244193 -40.9179573 47.84951541 -38.1875 47.875 C-36.33138496 47.88503568 -34.47526476 47.8941605 -32.61914062 47.90234375 C-28.07929954 47.92434374 -23.53970619 47.95884219 -19 48 C-19.02094727 46.85523193 -19.04189453 45.71046387 -19.06347656 44.53100586 C-19.13617801 40.26144037 -19.18190879 35.99192901 -19.21972656 31.72192383 C-19.23977361 29.87808006 -19.2670188 28.03429932 -19.30175781 26.19067383 C-19.35058208 23.5319051 -19.37303772 20.87398085 -19.390625 18.21484375 C-19.41127014 17.39789536 -19.43191528 16.58094696 -19.45318604 15.73924255 C-19.45540636 10.00492357 -18.31159329 6.71053401 -15 2 C-10.15983642 -1.6019822 -5.6374903 -1.53938849 0 0 Z " fill="#41B883" transform="translate(394,199)"/>
<path d="M0 0 C3.5349333 0.80662907 6.49878766 2.30084903 9.328125 4.53125 C10.71190508 7.07253136 11.58618203 9.05017368 12.42333984 11.75292969 C12.78420716 12.80996157 12.78420716 12.80996157 13.15236473 13.88834763 C13.90049947 16.09575364 14.61446397 18.3124964 15.328125 20.53125 C15.78350133 21.88198736 16.24154168 23.23183 16.70245361 24.58068848 C18.10401847 28.70426919 19.45601021 32.84325444 20.8046875 36.984375 C21.30188862 38.50227739 21.79940342 40.02007706 22.29721069 41.53778076 C23.59075351 45.48413572 24.88030908 49.43178139 26.16888428 53.37976074 C27.47486959 57.37892786 28.78437699 61.37694103 30.09375 65.375 C31.57110561 69.88609368 33.04822254 74.39726164 34.52212524 78.90948486 C34.7454997 79.59284251 34.96887415 80.27620016 35.19901752 80.98026562 C35.63208028 82.30582756 36.06452223 83.63159252 36.49628735 84.95757771 C37.48901487 87.99970921 38.50080269 91.03326396 39.54167175 94.05931091 C39.90924088 95.12859329 40.27681 96.19787567 40.65551758 97.29956055 C40.98006424 98.22753952 41.3046109 99.15551849 41.63899231 100.11161804 C43.53175713 106.75735451 40.1332748 113.3034837 37.765625 119.46875 C37.43626953 120.34337891 37.10691406 121.21800781 36.76757812 122.11914062 C35.96074662 124.25899809 35.14749319 126.39616864 34.328125 128.53125 C33.668125 128.53125 33.008125 128.53125 32.328125 128.53125 C30.23774725 122.36463563 28.27894934 116.16897033 26.390625 109.9375 C25.09436113 105.78183052 23.71527025 101.65731944 22.328125 97.53125 C15.86343609 78.25990953 9.51301755 58.95389742 3.23901367 39.61962891 C0.688066 31.7603589 -1.86495556 23.90183769 -4.46484375 16.05859375 C-4.84535889 14.9099585 -5.22587402 13.76132324 -5.61791992 12.57788086 C-6.62297152 9.55049845 -6.62297152 9.55049845 -7.86450195 6.76782227 C-8.671875 4.53125 -8.671875 4.53125 -7.796875 2.21875 C-5.22895677 0.17952082 -3.23518134 0.05260457 0 0 Z " fill="#BFBEC0" transform="translate(237.671875,162.46875)"/>
<path d="M0 0 C2.86797399 2.86797399 3.55503383 6.33075439 4.6875 10.125 C4.92533203 10.85976562 5.16316406 11.59453125 5.40820312 12.3515625 C5.62798828 13.08375 5.84777344 13.8159375 6.07421875 14.5703125 C6.37718872 15.55668701 6.37718872 15.55668701 6.6862793 16.56298828 C7.70008252 24.43830643 4.57442633 31.73431963 2.01953125 39.03125 C-1.44062694 49.15901762 -4.67029042 59.3225642 -7.67578125 69.59375 C-7.86689358 70.24569336 -8.05800591 70.89763672 -8.25490952 71.56933594 C-9.41828079 75.54135499 -10.57503776 79.51527307 -11.72894287 83.49005127 C-13.2908912 88.86987769 -14.85797976 94.24818222 -16.43166161 99.62458801 C-16.96867837 101.46410171 -17.5010672 103.30496452 -18.03327942 105.14587402 C-23.67203205 124.45070405 -23.67203205 124.45070405 -27.25 128.625 C-30.82183863 130.41091932 -33.99326252 131.24234299 -38 131 C-41 129.5625 -41 129.5625 -43 128 C-41.58226538 124.45566346 -40.32387762 123.66193881 -37 122 C-35.13602519 118.92620002 -34.36818642 115.79470403 -33.5625 112.3125 C-32.67952668 108.64305809 -31.74416375 105.06312866 -30.5 101.5 C-29.36775029 98.23679826 -28.48355323 94.98611364 -27.6875 91.625 C-26.47675941 86.6459261 -25.01160114 81.77972213 -23.4375 76.90625 C-19.19692265 63.62277912 -15.27609269 50.24307847 -11.3125 36.875 C-9.81043354 31.80934774 -8.30611047 26.74437143 -6.80078125 21.6796875 C-6.46323318 20.53893768 -6.12568512 19.39818787 -5.77790833 18.22286987 C-3.9603353 12.10775997 -2.05638935 6.03912756 0 0 Z " fill="#B5B4B5" transform="translate(216,206)"/>
<path d="M0 0 C3.29069279 1.12654348 4.8851042 3.15122796 7.16796875 5.7421875 C8.56738281 8.78930664 8.56738281 8.78930664 9.68359375 12.27734375 C10.00360352 13.25402008 10.00360352 13.25402008 10.33007812 14.25042725 C11.04065126 16.43075077 11.72935601 18.61733804 12.41796875 20.8046875 C12.91886526 22.36006492 13.421185 23.91498461 13.92480469 25.46948242 C14.74877572 28.01597011 15.57064942 30.56304583 16.38653564 33.11213684 C18.77663699 40.57612149 21.24752613 48.01176991 23.73046875 55.4453125 C24.90546312 58.97900118 26.07902231 62.51316226 27.25183105 66.0475769 C28.02728295 68.37971622 28.80567085 70.7108814 29.58703613 73.04104614 C30.69171298 76.34055387 31.78288238 79.64424994 32.87109375 82.94921875 C33.20488037 83.93637878 33.53866699 84.92353882 33.88256836 85.94061279 C36.59940189 94.26594295 36.93579143 99.6483462 33.16796875 107.7421875 C32.10902578 110.72344586 31.13141769 113.7288472 30.16796875 116.7421875 C29.50796875 116.7421875 28.84796875 116.7421875 28.16796875 116.7421875 C27.98621094 115.83597656 27.80445313 114.92976563 27.6171875 113.99609375 C27.36582031 112.77792969 27.11445313 111.55976563 26.85546875 110.3046875 C26.61183594 109.10972656 26.36820313 107.91476562 26.1171875 106.68359375 C24.48614167 99.4693877 21.75845865 92.57028579 19.21337891 85.640625 C14.87734999 73.8077951 10.88340875 61.88481125 7.06274414 49.87719727 C4.79491087 42.75637056 2.48233714 35.65426665 0.08984375 28.57421875 C-0.16536041 27.81736786 -0.42056458 27.06051697 -0.6835022 26.2807312 C-1.68566547 23.31040499 -2.6882351 20.34029445 -3.70306396 17.37426758 C-4.39960596 15.33844694 -5.08902314 13.30033086 -5.77734375 11.26171875 C-6.17453613 10.09745361 -6.57172852 8.93318848 -6.98095703 7.73364258 C-7.83203125 4.7421875 -7.83203125 4.7421875 -7.83203125 0.7421875 C-5.16969703 -0.58897961 -2.90655648 -0.19114685 0 0 Z " fill="#B1B0B1" transform="translate(135.83203125,170.2578125)"/>
<path d="M0 0 C1.28785652 0.00424484 1.28785652 0.00424484 2.60173035 0.00857544 C5.3322875 0.0197318 8.06251145 0.04482791 10.79296875 0.0703125 C12.64908379 0.08034818 14.50520399 0.089473 16.36132812 0.09765625 C20.90127197 0.11795104 25.44049927 0.15710799 29.98046875 0.1953125 C29.98046875 8.7753125 29.98046875 17.3553125 29.98046875 26.1953125 C24.5535837 26.2874237 19.12943814 26.36697383 13.70239258 26.41503906 C11.85854881 26.43508611 10.01476807 26.4623313 8.17114258 26.49707031 C5.51237385 26.54589458 2.8544496 26.56835022 0.1953125 26.5859375 C-0.62163589 26.60658264 -1.43858429 26.62722778 -2.2802887 26.64849854 C-8.01460768 26.65071886 -11.30899724 25.50690579 -16.01953125 22.1953125 C-18.67056642 18.63298398 -19.2374693 15.96162549 -18.95703125 11.6328125 C-18.31302279 7.51946814 -17.15168853 5.06645667 -14.01953125 2.1953125 C-9.43257722 -0.27097735 -5.06767019 -0.06323368 0 0 Z " fill="#6E6ADA" transform="translate(345.01953125,246.8046875)"/>
<path d="M0 0 C5.77112623 -0.14543168 5.77112623 -0.14543168 9.03735352 2.28686523 C12.00045131 6.32745314 13.34835337 9.0762464 13.03735352 14.09936523 C12.376894 18.36013454 10.46174547 20.3934522 7.09985352 23.09936523 C3.88126645 24.70865877 0.38335302 24.24422233 -3.15014648 24.22436523 C-3.97683838 24.22243164 -4.80353027 24.22049805 -5.65527344 24.21850586 C-15.74773802 24.15089095 -25.82357453 23.63777522 -35.90014648 23.09936523 C-35.95805002 19.80777207 -35.99370909 16.5163092 -36.02514648 13.22436523 C-36.0419043 12.2872168 -36.05866211 11.35006836 -36.07592773 10.38452148 C-36.0855957 9.04067383 -36.0855957 9.04067383 -36.09545898 7.66967773 C-36.10593262 6.84226074 -36.11640625 6.01484375 -36.12719727 5.16235352 C-35.90014648 3.09936523 -35.90014648 3.09936523 -33.90014648 1.09936523 C-30.97021484 0.78051758 -30.97021484 0.78051758 -27.23999023 0.68530273 C-26.5760878 0.66593658 -25.91218536 0.64657043 -25.22816467 0.62661743 C-23.09812366 0.56681925 -20.96802129 0.52056787 -18.83764648 0.47436523 C-17.42941982 0.43616067 -16.02121591 0.3971075 -14.61303711 0.35717773 C-9.74223684 0.22320898 -4.86975424 0.16684822 0 0 Z " fill="#1EA783" transform="translate(436.900146484375,247.900634765625)"/>
<path d="M0 0 C2.77982621 1.3899131 2.87463341 3.18658353 4 6 C4.66 6.33 5.32 6.66 6 7 C7.90303246 12.18047725 8.19286332 16.50339543 8 22 C8.66 22 9.32 22 10 22 C10.99 24.97 11.98 27.94 13 31 C13.61875 30.21625 14.2375 29.4325 14.875 28.625 C17 26 17 26 19 24 C18.67958603 21.39719432 18.67958603 21.39719432 18 19 C19.32 18.01 20.64 17.02 22 16 C24.7946554 22.83332379 27.41093721 29.70621283 29.8125 36.6875 C30.13669922 37.58533203 30.46089844 38.48316406 30.79492188 39.40820312 C33.96814071 48.6832432 31.84616071 55.06148252 28.4375 63.9375 C27.9434668 65.24944336 27.9434668 65.24944336 27.43945312 66.58789062 C26.63262162 68.72774809 25.81936819 70.86491864 25 73 C24.34 73 23.68 73 23 73 C20.90962225 66.83338563 18.95082434 60.63772033 17.0625 54.40625 C15.76622646 50.25054952 14.38456959 46.12696817 13 42 C12.20792223 39.62513707 11.41629457 37.250124 10.625 34.875 C10.19273294 33.5781168 9.76044089 32.28124193 9.328125 30.984375 C8.44270833 28.328125 7.55729167 25.671875 6.671875 23.015625 C6.3481189 22.04471924 6.3481189 22.04471924 6.01782227 21.05419922 C5.38975719 19.16928839 4.76321952 17.28386884 4.13671875 15.3984375 C3.4405446 13.31709209 2.73665193 11.23828407 2.01953125 9.1640625 C0 3.30457746 0 3.30457746 0 0 Z " fill="#7C7B7E" transform="translate(247,218)"/>
<path d="M0 0 C0.12375 0.556875 0.2475 1.11375 0.375 1.6875 C0.93084157 4.04764518 0.93084157 4.04764518 2.125 6.25 C4.0418914 12.27451582 1.59155351 19.1042633 -0.14453125 25.0078125 C-0.35559006 25.73692841 -0.56664886 26.46604431 -0.78410339 27.21725464 C-1.22894229 28.74586442 -1.67700655 30.27353902 -2.12817383 31.80029297 C-2.81180248 34.12263049 -3.47761442 36.44960287 -4.14257812 38.77734375 C-4.57965508 40.27114802 -5.01777117 41.76464873 -5.45703125 43.2578125 C-5.65198685 43.94545685 -5.84694244 44.6331012 -6.04780579 45.34158325 C-7.82433975 51.25287164 -9.89235836 55.76722847 -15.3125 58.9375 C-19.43784194 60.12615785 -21.88801655 60.2094069 -26 59 C-27.4375 56.9375 -27.4375 56.9375 -28 55 C-27.05125 54.4225 -26.1025 53.845 -25.125 53.25 C-20.52737345 49.93970888 -19.81076506 46.70754389 -18.5625 41.3125 C-16.94378559 34.61690858 -15.18844345 28.13056939 -12 22 C-11.34 22 -10.68 22 -10 22 C-10.061875 21.34 -10.12375 20.68 -10.1875 20 C-9.97541229 16.60659672 -9.0542835 14.11583452 -7.78125 10.9921875 C-6.88261302 8.81321842 -6.88261302 8.81321842 -6.125 5.6875 C-4.72902613 2.35267354 -3.20955211 1.52031416 0 0 Z " fill="#656566" transform="translate(201,277)"/>
<path d="M0 0 C-2.22038126 9.85973496 -4.96343112 19.55578753 -7.90408325 29.22280884 C-8.29964655 30.52695026 -8.69134662 31.83227005 -9.07907104 33.13876343 C-9.63489891 35.00614663 -10.20784193 36.86840865 -10.78125 38.73046875 C-11.11189453 39.81739014 -11.44253906 40.90431152 -11.78320312 42.02416992 C-13.56524303 46.38237305 -15.54902707 49.29063546 -19.8125 51.375 C-23.60604792 52.11883293 -26.262176 51.98734973 -30 51 C-31.9375 48.9375 -31.9375 48.9375 -33 47 C-32.0925 46.62875 -31.185 46.2575 -30.25 45.875 C-25.0612251 42.88147602 -22.96437475 38.48801974 -21 33 C-20.36457109 30.3361932 -19.76390925 27.67618579 -19.1875 25 C-14.8855608 5.8855608 -14.8855608 5.8855608 -10 1 C-8.125 0.5859375 -8.125 0.5859375 -6 0.375 C-5.29875 0.30023438 -4.5975 0.22546875 -3.875 0.1484375 C-2 0 -2 0 0 0 Z " fill="#59595A" transform="translate(100,285)"/>
<path d="M0 0 C2.43502752 2.43502752 3.02259478 4.43336311 4.125 7.6875 C4.47820312 8.70199219 4.83140625 9.71648437 5.1953125 10.76171875 C6.85273538 17.431639 5.76517283 22.81631909 3.75 29.1875 C3.52328613 29.92492432 3.29657227 30.66234863 3.06298828 31.42211914 C2.60245955 32.91116202 2.13719267 34.39874849 1.66699219 35.88476562 C1.05693232 37.81945037 0.46873011 39.7609925 -0.1171875 41.703125 C-0.44976562 42.77046875 -0.78234375 43.8378125 -1.125 44.9375 C-1.41632813 45.87464844 -1.70765625 46.81179687 -2.0078125 47.77734375 C-3 50 -3 50 -6 52 C-8.333013 52.42711464 -10.63386915 52.62033645 -12.99536133 52.82568359 C-13.98765747 52.91197021 -13.98765747 52.91197021 -15 53 C-13.65852866 46.71460847 -12.09919289 40.54748233 -10.3125 34.375 C-9.93037354 33.04529175 -9.93037354 33.04529175 -9.54052734 31.6887207 C-6.4767082 21.09093519 -3.24564018 10.5432638 0 0 Z " fill="#B1B0B3" transform="translate(112,206)"/>
<path d="M0 0 C1.39810386 4.19431159 -0.04785533 7.31453545 -1.30859375 11.38671875 C-1.67695091 12.61223198 -1.67695091 12.61223198 -2.05274963 13.86250305 C-2.83954982 16.4733704 -3.63835651 19.08038732 -4.4375 21.6875 C-4.97279953 23.45613999 -5.50731462 25.22501761 -6.04101562 26.99414062 C-7.35158812 31.33223758 -8.67294077 35.66691942 -10 40 C-12.81832513 38.59083743 -13.02593461 36.92219617 -14 34 C-14 33.01 -14 32.02 -14 31 C-16.53884453 32.15565651 -16.53884453 32.15565651 -19 34 C-19.70480232 36.2663568 -19.70480232 36.2663568 -20 39 C-20.47393606 40.34281882 -20.97630305 41.67579485 -21.5 43 C-22.65750793 45.98128871 -23.50420149 48.82688956 -24 52 C-24.66 52 -25.32 52 -26 52 C-26.33 52.66 -26.66 53.32 -27 54 C-26.33811348 49.45736833 -25.26163984 45.13644785 -23.9375 40.75 C-23.72633545 40.04270752 -23.5151709 39.33541504 -23.29760742 38.60668945 C-22.53691601 36.06953947 -21.7686451 33.53475163 -21 31 C-20.67483398 29.92218262 -20.34966797 28.84436523 -20.01464844 27.73388672 C-18.95212634 24.21692874 -17.88332793 20.70193731 -16.8125 17.1875 C-16.46759521 16.04829102 -16.12269043 14.90908203 -15.76733398 13.73535156 C-15.43805908 12.66124023 -15.10878418 11.58712891 -14.76953125 10.48046875 C-14.47667236 9.52035889 -14.18381348 8.56024902 -13.88208008 7.57104492 C-13.08570242 5.24980133 -12.15854841 3.15904067 -11 1 C-10.67 1.66 -10.34 2.32 -10 3 C-9.34 3.33 -8.68 3.66 -8 4 C-8.33 4.66 -8.66 5.32 -9 6 C-6.03 6.495 -6.03 6.495 -3 7 C-3 6.34 -3 5.68 -3 5 C-2.34 5 -1.68 5 -1 5 C-0.67 3.35 -0.34 1.7 0 0 Z " fill="#969596" transform="translate(215,247)"/>
<path d="M0 0 C-2.26470223 9.49247529 -4.72212799 18.7940616 -8 28 C-8.66 28 -9.32 28 -10 28 C-10.66 26.35 -11.32 24.7 -12 23 C-11.34 23 -10.68 23 -10 23 C-10.61875 21.6696875 -10.61875 21.6696875 -11.25 20.3125 C-11.4975 19.219375 -11.745 18.12625 -12 17 C-10.125 14.125 -10.125 14.125 -8 12 C-8.66 12 -9.32 12 -10 12 C-10 12.66 -10 13.32 -10 14 C-10.61875 14.165 -11.2375 14.33 -11.875 14.5 C-14.65812777 16.46456078 -14.83358371 18.39593472 -15.50390625 21.62890625 C-16.05683156 24.27162801 -16.75191741 26.84340265 -17.5 29.4375 C-17.7371875 30.28183594 -17.974375 31.12617188 -18.21875 31.99609375 C-19 34 -19 34 -21 35 C-20.02469826 28.26022826 -18.48827845 21.72918907 -16.625 15.1875 C-16.42817627 14.47086182 -16.23135254 13.75422363 -16.02856445 13.01586914 C-14.69157041 8.45139165 -13.07013556 4.72884002 -10 1 C-6.79210855 -0.24684083 -3.43267703 0 0 0 Z " fill="#746F80" transform="translate(100,285)"/>
<path d="M0 0 C3.0625 1.75 3.0625 1.75 5 4 C5.3125 6.75 5.3125 6.75 5 9 C2.69 9 0.38 9 -2 9 C-2 8.34 -2 7.68 -2 7 C-2.66 7 -3.32 7 -4 7 C-4 6.34 -4 5.68 -4 5 C-5.32 5 -6.64 5 -8 5 C-8 5.66 -8 6.32 -8 7 C-9.98 7.99 -9.98 7.99 -12 9 C-12 8.01 -12 7.02 -12 6 C-15.24849977 7.72226496 -15.24849977 7.72226496 -16 11 C-16.14511087 13.00786169 -16.23589701 15.01981503 -16.29711914 17.03198242 C-16.33708511 18.27304245 -16.37705109 19.51410248 -16.41822815 20.79277039 C-16.45730058 22.1470004 -16.49627429 23.50123326 -16.53515625 24.85546875 C-16.57817392 26.24124864 -16.62159053 27.6270162 -16.66539001 29.01277161 C-16.77951089 32.65734702 -16.88821107 36.30206474 -16.99578857 39.94683838 C-17.10655328 43.66713386 -17.22243637 47.3872695 -17.33789062 51.10742188 C-17.56360746 58.40480101 -17.78359872 65.70233804 -18 73 C-18.33 73 -18.66 73 -19 73 C-19.88494213 59.88789973 -20.13426811 46.86421682 -19.86791992 33.72509766 C-19.81177788 30.71123476 -19.78381854 27.69783437 -19.75585938 24.68359375 C-19.72046909 22.7421554 -19.68342206 20.80074638 -19.64453125 18.859375 C-19.64016556 17.97078796 -19.63579987 17.08220093 -19.63130188 16.16668701 C-19.47122914 10.31330077 -18.39834729 6.80564911 -15 2 C-10.15023117 -1.6091303 -5.64618468 -1.52571535 0 0 Z " fill="#2496A4" transform="translate(394,199)"/>
<path d="M0 0 C2 2 2 2 2.22705078 5.89892578 C2.22673341 7.58108793 2.21539396 9.26327019 2.1953125 10.9453125 C2.1924826 11.8303244 2.18965271 12.7153363 2.18673706 13.62716675 C2.1755224 16.45991412 2.1504157 19.29234784 2.125 22.125 C2.11497185 24.04296419 2.10584572 25.96093333 2.09765625 27.87890625 C2.07727854 32.5861562 2.03813273 37.2927261 2 42 C14.87 42 27.74 42 41 42 C41 42.33 41 42.66 41 43 C36.52525472 43.8493033 32.21903291 44.17191513 27.66796875 44.28125 C26.27929658 44.31899963 24.89062472 44.35676036 23.50195312 44.39453125 C21.33149091 44.44840359 19.16099551 44.50063029 16.99047852 44.55224609 C14.88285137 44.60379582 12.77543512 44.66105314 10.66796875 44.71875 C9.41266357 44.74904297 8.1573584 44.77933594 6.86401367 44.81054688 C4.10307665 44.67729268 4.10307665 44.67729268 3 46 C2.84344973 47.48638992 2.74933057 48.97949127 2.68359375 50.47265625 C2.64169922 51.37177734 2.59980469 52.27089844 2.55664062 53.19726562 C2.51732422 54.14279297 2.47800781 55.08832031 2.4375 56.0625 C2.39431641 57.01189453 2.35113281 57.96128906 2.30664062 58.93945312 C2.20020724 61.29281353 2.09818992 63.64628354 2 66 C2.57741943 65.99476318 3.15483887 65.98952637 3.74975586 65.98413086 C16.21151607 65.88662872 28.57052446 66.07685593 41 67 C41 67.33 41 67.66 41 68 C35.62484067 68.02467759 30.24971415 68.04284928 24.87451172 68.05493164 C23.04507879 68.05996737 21.21564991 68.06679627 19.38623047 68.07543945 C16.76008102 68.08753824 14.13398468 68.09323583 11.5078125 68.09765625 C10.68693146 68.10281754 9.86605042 68.10797882 9.02029419 68.11329651 C3.22774341 68.11387171 3.22774341 68.11387171 1 67 C-0.18085858 44.66732624 -0.10586942 22.35636301 0 0 Z " fill="#3E9D91" transform="translate(399,205)"/>
<path d="M0 0 C3 2.375 3 2.375 5 5 C5 5.99 5 6.98 5 8 C4.401875 8.103125 3.80375 8.20625 3.1875 8.3125 C0.70138466 9.09385053 -0.22943442 10.14895416 -2 12 C-2.66 12 -3.32 12 -4 12 C-3.67 12.66 -3.34 13.32 -3 14 C-2.95977609 16.3329866 -2.95679753 18.66706666 -3 21 C-1.35 21 0.3 21 2 21 C2.07347656 22.17369141 2.07347656 22.17369141 2.1484375 23.37109375 C2.22320312 24.38300781 2.29796875 25.39492187 2.375 26.4375 C2.44460937 27.44683594 2.51421875 28.45617187 2.5859375 29.49609375 C2.72257813 30.32238281 2.85921875 31.14867187 3 32 C3.66 32.33 4.32 32.66 5 33 C4.34 34.98 3.68 36.96 3 39 C0.31729768 36.31729768 -0.44038023 33.2509363 -1.6015625 29.7265625 C-1.8428891 29.00640961 -2.0842157 28.28625671 -2.33285522 27.54428101 C-2.84171871 26.02041252 -3.34755277 24.49552958 -3.85058594 22.96972656 C-4.62064115 20.63819748 -5.40335484 18.3111977 -6.1875 15.984375 C-6.68045702 14.50285999 -7.17266926 13.02109692 -7.6640625 11.5390625 C-7.89839996 10.84414703 -8.13273743 10.14923157 -8.37417603 9.43325806 C-9.47349128 6.07047304 -10 3.58444361 -10 0 C-6.72134697 -1.63932652 -3.4115814 -0.96541883 0 0 Z " fill="#EFEBF2" transform="translate(138,171)"/>
<path d="M0 0 C2.77982621 1.3899131 2.87463341 3.18658353 4 6 C4.66 6.33 5.32 6.66 6 7 C7.90303246 12.18047725 8.19286332 16.50339543 8 22 C8.66 22 9.32 22 10 22 C10.99 24.97 11.98 27.94 13 31 C13.61875 30.21625 14.2375 29.4325 14.875 28.625 C17 26 17 26 19 24 C18.67958603 21.39719432 18.67958603 21.39719432 18 19 C19.32 18.01 20.64 17.02 22 16 C25.42857143 23.28571429 25.42857143 23.28571429 25 28 C24.071875 28.4125 23.14375 28.825 22.1875 29.25 C18.98425415 31.00864478 17.81868742 31.92555221 16 35 C15.63965477 37.58881802 15.63965477 37.58881802 15.8125 40.25 C15.83957031 41.14203125 15.86664063 42.0340625 15.89453125 42.953125 C15.92933594 43.62859375 15.96414063 44.3040625 16 45 C12.57154719 41.18900404 11.09356936 37.90846032 9.6875 33 C9.27328629 31.58912128 8.85647271 30.17900407 8.4375 28.76953125 C8.21320313 28.0110791 7.98890625 27.25262695 7.7578125 26.47119141 C6.05271483 20.91094701 4.12739464 15.4187601 2.23510742 9.91992188 C1.94482666 9.06333984 1.6545459 8.20675781 1.35546875 7.32421875 C1.09403076 6.56197998 0.83259277 5.79974121 0.56323242 5.0144043 C0 3 0 3 0 0 Z " fill="#8D8E90" transform="translate(247,218)"/>
<path d="M0 0 C0.66 0.33 1.32 0.66 2 1 C1.930958 6.44478172 1.84291113 11.88880758 1.73754883 17.33300781 C1.70437704 19.18350819 1.67632113 21.03410786 1.65356445 22.88476562 C1.6198755 25.55121003 1.5675534 28.2167509 1.51171875 30.8828125 C1.50213387 32.11597702 1.50213387 32.11597702 1.49235535 33.37405396 C1.36739625 38.30038611 0.68577998 41.71572722 -2 46 C-5.74834295 49.4075845 -9.68128543 49.56061472 -14.5546875 49.4296875 C-18.55175316 48.72732772 -20.26833621 46.94179178 -23 44 C-24.20029908 41.59940183 -24.11459743 40.10639351 -24.09765625 37.4296875 C-24.09443359 36.53378906 -24.09121094 35.63789063 -24.08789062 34.71484375 C-24.07951172 33.77769531 -24.07113281 32.84054687 -24.0625 31.875 C-24.05798828 30.93011719 -24.05347656 29.98523438 -24.04882812 29.01171875 C-24.03702357 26.67441613 -24.02055759 24.33723939 -24 22 C-23.67 22 -23.34 22 -23 22 C-22.80379233 24.06168985 -22.61839247 26.12440998 -22.4375 28.1875 C-22.33308594 29.33605469 -22.22867187 30.48460937 -22.12109375 31.66796875 C-22.01140015 34.68631199 -22.25997611 37.08923936 -23 40 C-21.515 39.505 -21.515 39.505 -20 39 C-19.71125 39.61875 -19.4225 40.2375 -19.125 40.875 C-18.06279958 43.13325765 -18.06279958 43.13325765 -16 45 C-16 45.33 -16 45.66 -16 46 C-13.03 46 -10.06 46 -7 46 C-6.67 45.01 -6.34 44.02 -6 43 C-6.66 43 -7.32 43 -8 43 C-8 42.34 -8 41.68 -8 41 C-5.66666667 41 -3.33333333 41 -1 41 C-1.00523682 39.82904785 -1.01047363 38.6580957 -1.01586914 37.45166016 C-1.03393758 33.11686972 -1.04543879 28.78208263 -1.05493164 24.44726562 C-1.05996763 22.56933025 -1.06679671 20.6913988 -1.07543945 18.81347656 C-1.08753713 16.11782868 -1.09323557 13.42223253 -1.09765625 10.7265625 C-1.10281754 9.88380768 -1.10797882 9.04105286 -1.11329651 8.17276001 C-1.11387171 2.22774341 -1.11387171 2.22774341 0 0 Z " fill="#7EC17E" transform="translate(400,272)"/>
<path d="M0 0 C3.0745239 3.0745239 4.02488522 6.81689891 5 11 C4.76693922 15.03972025 3.62728305 18.31149175 2 22 C1.01 21.34 0.02 20.68 -1 20 C-3.50298434 22.93828597 -4.46930939 25.17902761 -5 29 C-5.99 29.33 -6.98 29.66 -8 30 C-7.33756276 23.42227814 -5.4097775 17.3542605 -3.4375 11.0625 C-2.9434668 9.46438477 -2.9434668 9.46438477 -2.43945312 7.83398438 C-1.631 5.22115762 -0.81773465 2.60993378 0 0 Z " fill="#CAC8CA" transform="translate(112,206)"/>
<path d="M0 0 C2.86797399 2.86797399 3.55503383 6.33075439 4.6875 10.125 C4.92533203 10.85976562 5.16316406 11.59453125 5.40820312 12.3515625 C7.31882277 18.71655934 7.12606826 23.62179522 5 30 C3.68 29.67 2.36 29.34 1 29 C1.08378906 28.3709375 1.16757813 27.741875 1.25390625 27.09375 C1.92101486 21.48665994 2.11075235 16.55376175 1 11 C0.34 10.67 -0.32 10.34 -1 10 C-1.12375 10.721875 -1.2475 11.44375 -1.375 12.1875 C-2 15 -2 15 -3 17.4375 C-4.10907282 20.27949909 -4.57943236 22.98593192 -5 26 C-5.66 26 -6.32 26 -7 26 C-6.36519395 20.077822 -4.78907028 14.71172256 -2.9375 9.0625 C-2.65583984 8.18787109 -2.37417969 7.31324219 -2.08398438 6.41210938 C-1.39434445 4.27305673 -0.69959171 2.13581421 0 0 Z " fill="#C1BCCE" transform="translate(216,206)"/>
<path d="M0 0 C0.66 0 1.32 0 2 0 C3.85527907 6.92572764 1.62290458 11.93280275 -0.9375 18.4375 C-1.51661133 19.96407227 -1.51661133 19.96407227 -2.10742188 21.52148438 C-3.05759819 24.02009618 -4.02199396 26.51217924 -5 29 C-5.66 29 -6.32 29 -7 29 C-7.734516 26.79645201 -8.46807157 24.59268289 -9.1953125 22.38671875 C-9.84048521 20.47312397 -10.53702601 18.57688108 -11.25 16.6875 C-12.02090351 13.92509575 -12.01561661 12.64060319 -11 10 C-10.34 11.98 -9.68 13.96 -9 16 C-8.34 16 -7.68 16 -7 16 C-6.67 17.32 -6.34 18.64 -6 20 C-5.67 19.01 -5.34 18.02 -5 17 C-4.34 17 -3.68 17 -3 17 C-3.04125 15.906875 -3.0825 14.81375 -3.125 13.6875 C-3 10 -3 10 -1 7 C-2.32 6.67 -3.64 6.34 -5 6 C-4.34 6 -3.68 6 -3 6 C-3.33 4.68 -3.66 3.36 -4 2 C-3.01 2 -2.02 2 -1 2 C-0.67 1.34 -0.34 0.68 0 0 Z " fill="#6B5787" transform="translate(277,262)"/>
<path d="M0 0 C3.07361254 2.60074907 4.80586051 4.23103805 5.80493164 8.18823242 C6.0276412 12.54012779 5.12783291 15.89263781 3.68359375 19.92578125 C3.4300563 20.67224411 3.17651886 21.41870697 2.91529846 22.18778992 C2.10343229 24.56780132 1.27109868 26.94002441 0.4375 29.3125 C-0.09580459 30.8621479 -0.62771671 32.41227573 -1.15820312 33.96289062 C-2.22003066 37.06176811 -3.28935063 40.15790868 -4.36376953 43.25244141 C-6.97992793 50.8110867 -9.48592891 58.40692892 -12 66 C-12.33 66 -12.66 66 -13 66 C-13 64.02 -13 62.04 -13 60 C-13.66 60 -14.32 60 -15 60 C-14 57 -14 57 -11 55 C-9.75412605 51.67248981 -9.75412605 51.67248981 -8.8125 47.875 C-8.63525391 47.21628906 -8.45800781 46.55757812 -8.27539062 45.87890625 C-7.84007606 44.25530057 -7.41868259 42.62797391 -7 41 C-6.34 41 -5.68 41 -5 41 C-4.87625 40.113125 -4.7525 39.22625 -4.625 38.3125 C-4.04863174 35.25774821 -3.18390116 32.85529103 -2 30 C-1.32215008 27.66989091 -0.65583207 25.33640176 0 23 C0.37125 21.989375 0.7425 20.97875 1.125 19.9375 C2.0622862 16.79089633 2.14512678 14.2653525 2 11 C2 10.01 2 9.02 2 8 C1.51265964 5.21519796 0.89587361 2.68762083 0 0 Z " fill="#5625C3" transform="translate(330,169)"/>
<path d="M0 0 C0.25 2.75 0.25 2.75 0 6 C-2 8.375 -2 8.375 -4 10 C-3.67 10.66 -3.34 11.32 -3 12 C-2.65977214 13.99883869 -2.32670903 15.99890722 -2 18 C-1.67 18.99 -1.34 19.98 -1 21 C-1.4375 23.1875 -1.4375 23.1875 -2 25 C-4 24 -4 24 -5.21875 20.796875 C-5.65337787 19.45032854 -6.08012918 18.10122065 -6.5 16.75 C-8.18705451 11.39486151 -8.18705451 11.39486151 -10.2109375 6.16015625 C-11 4 -11 4 -10.125 1.6875 C-6.83353274 -0.92631224 -4.12573831 -0.27054022 0 0 Z " fill="#ECEAED" transform="translate(240,163)"/>
<path d="M0 0 C3.44700673 5.1705101 4.54361607 9.80277679 4 16 C3.07989717 18.3659787 2.07136051 20.69855891 1 23 C-0.05894297 25.98125836 -1.03655106 28.9866597 -2 32 C-2.66 32 -3.32 32 -4 32 C-4.18175781 31.09378906 -4.36351562 30.18757813 -4.55078125 29.25390625 C-5.83619247 23.02460573 -7.22593631 17.02919344 -9.37109375 11.04296875 C-10.39097648 7.72993354 -10.68677916 4.44542926 -11 1 C-7.73722629 3.57120754 -7.48202337 5.84809644 -7 9.875 C-6.46272338 14.3411119 -5.53723971 17.26308717 -3 21 C0.57011026 17.267612 1.10913442 12.9050011 2 8 C1.34 8 0.68 8 0 8 C0 5.36 0 2.72 0 0 Z " fill="#76707B" transform="translate(168,255)"/>
<path d="M0 0 C3 2 3 2 3.625 3.953125 C3.810625 5.09007812 3.810625 5.09007812 4 6.25 C4.55930993 9.16210954 5.09575974 11.19151949 6.4375 13.875 C9.05350623 19.10701247 11 25.11812431 11 31 C11.66 31 12.32 31 13 31 C13.33 32.65 13.66 34.3 14 36 C15.32 36 16.64 36 18 36 C18 36.66 18 37.32 18 38 C19.98 37.505 19.98 37.505 22 37 C22.66 38.65 23.32 40.3 24 42 C25.41702513 41.85769192 26.8336096 41.71099254 28.25 41.5625 C29.03890625 41.48128906 29.8278125 41.40007812 30.640625 41.31640625 C32.82364639 41.02365007 34.8773182 40.57935581 37 40 C35.01686847 42.85075158 33.66160245 43.07766501 30.1875 43.875 C25.97598115 44.24322023 23.62228807 43.26393004 20 41 C19.02353516 40.55720703 19.02353516 40.55720703 18.02734375 40.10546875 C11.7117086 36.95355364 9.87456894 32.58518259 7.69335938 26.07861328 C7.46455078 25.3926709 7.23574219 24.70672852 7 24 C6.38090356 22.21720634 5.76105443 20.43467396 5.140625 18.65234375 C3.86228145 14.92865372 2.59108911 11.20294724 1.35546875 7.46484375 C1.09403076 6.677146 0.83259277 5.88944824 0.56323242 5.07788086 C0 3 0 3 0 0 Z " fill="#5627C4" transform="translate(245,293)"/>
<path d="M0 0 C0 1.65 0 3.3 0 5 C-2 5 -4 5 -6 5 C-7.70532323 6.94009522 -7.70532323 6.94009522 -9 9 C-8.67 9.598125 -8.34 10.19625 -8 10.8125 C-7 13 -7 13 -7 16 C-6.01 16 -5.02 16 -4 16 C-3.34 15.34 -2.68 14.68 -2 14 C-1.06576355 17.01031744 -0.95550089 17.86650268 -2 21 C-4.25 20.9375 -4.25 20.9375 -7 20 C-10.15879803 16.00993933 -11.35028996 13.40919232 -10.9375 8.3125 C-10.3443696 4.86529661 -9.74205635 2.35033401 -7 0 C-2.71641791 -1.35820896 -2.71641791 -1.35820896 0 0 Z " fill="#815BE8" transform="translate(337,250)"/>
<path d="M0 0 C0.66 0 1.32 0 2 0 C2 1.32 2 2.64 2 4 C3.65 4 5.3 4 7 4 C7.04898438 4.78246094 7.09796875 5.56492188 7.1484375 6.37109375 C7.22320312 7.38300781 7.29796875 8.39492187 7.375 9.4375 C7.47941406 10.95150391 7.47941406 10.95150391 7.5859375 12.49609375 C7.72257813 13.32238281 7.85921875 14.14867187 8 15 C8.66 15.33 9.32 15.66 10 16 C9.34 17.98 8.68 19.96 8 22 C5.87738924 19.87738924 5.41288502 18.73100098 4.4921875 15.9375 C4.22792969 15.14085937 3.96367187 14.34421875 3.69140625 13.5234375 C3.42199219 12.69070312 3.15257812 11.85796875 2.875 11 C2.59785156 10.16726562 2.32070312 9.33453125 2.03515625 8.4765625 C0 2.28086515 0 2.28086515 0 0 Z " fill="#CDC0DB" transform="translate(133,188)"/>
<path d="M0 0 C2.77982621 1.3899131 2.87463341 3.18658353 4 6 C4.66 6.33 5.32 6.66 6 7 C7.90303246 12.18047725 8.19286332 16.50339543 8 22 C8.66 22 9.32 22 10 22 C10 24.64 10 27.28 10 30 C7.38326007 25.03197597 5.71376686 19.72963997 3.875 14.4375 C3.50246094 13.38369141 3.12992188 12.32988281 2.74609375 11.24414062 C2.39417969 10.23416016 2.04226562 9.22417969 1.6796875 8.18359375 C1.35726074 7.26118896 1.03483398 6.33878418 0.70263672 5.38842773 C0 3 0 3 0 0 Z " fill="#AA9CBC" transform="translate(247,218)"/>
<path d="M0 0 C2.28814723 2.28814723 2.75451161 3.80751622 3.6875 6.875 C3.95949219 7.73867187 4.23148438 8.60234375 4.51171875 9.4921875 C5.01692938 12.08694932 4.85561171 13.530785 4 16 C3.525625 14.865625 3.05125 13.73125 2.5625 12.5625 C1.36377917 9.24259834 1.36377917 9.24259834 0 8 C-0.28875 9.051875 -0.5775 10.10375 -0.875 11.1875 C-2 15 -2 15 -3.0625 17.5625 C-4.13604079 20.35370604 -4.58768384 23.04506751 -5 26 C-5.66 26 -6.32 26 -7 26 C-6.36519395 20.077822 -4.78907028 14.71172256 -2.9375 9.0625 C-2.65583984 8.18787109 -2.37417969 7.31324219 -2.08398438 6.41210938 C-1.39434445 4.27305673 -0.69959171 2.13581421 0 0 Z " fill="#C3B0E4" transform="translate(216,206)"/>
<path d="M0 0 C1.54363098 4.11634927 0.73840234 7.77096844 0 12 C-2 15 -2 15 -5.125 15.6875 C-6.548125 15.8421875 -6.548125 15.8421875 -8 16 C-8.99 14.68 -9.98 13.36 -11 12 C-9.63875 11.443125 -9.63875 11.443125 -8.25 10.875 C-3.66741593 8.2312015 -1.65460481 4.96381443 0 0 Z " fill="#544668" transform="translate(78,320)"/>
<path d="M0 0 C2.16601957 3.24902935 3.36726692 6.49816161 4.63671875 10.15234375 C4.88041702 10.84888565 5.1241153 11.54542755 5.37519836 12.26307678 C5.88765826 13.73405565 6.39771071 15.20587514 6.90551758 16.6784668 C7.68474155 18.92953123 8.47973436 21.17462171 9.27539062 23.41992188 C9.77181474 24.85122249 10.26728959 26.28285277 10.76171875 27.71484375 C11.0012175 28.38474838 11.24071625 29.05465302 11.48747253 29.74485779 C12.64377398 33.15500637 13.41544694 35.58316185 12 39 C8.0023425 30.7707795 3.5176604 21.30226362 4 12 C3.34 12 2.68 12 2 12 C0.86235649 7.73383684 0 4.43513689 0 0 Z " fill="#5F2FC8" transform="translate(239,197)"/>
<path d="M0 0 C0.33 0 0.66 0 1 0 C2.25 6.625 2.25 6.625 0 10 C-1.64615599 13.68814339 -2.67704481 17.39141263 -3.625 21.3125 C-3.88539063 22.38113281 -4.14578125 23.44976562 -4.4140625 24.55078125 C-4.70410156 25.76314453 -4.70410156 25.76314453 -5 27 C-5.66 27 -6.32 27 -7 27 C-7.33 27.66 -7.66 28.32 -8 29 C-7.2961657 24.00198567 -6.01464565 19.31790597 -4.5625 14.5 C-4.34529297 13.76652344 -4.12808594 13.03304688 -3.90429688 12.27734375 C-2.67739533 8.15819683 -1.38442817 4.06957491 0 0 Z " fill="#7F6E96" transform="translate(196,272)"/>
<path d="M0 0 C0.66 0 1.32 0 2 0 C2.99928065 4.99640327 3.12039317 8.31281509 1 13 C0.01 13.495 0.01 13.495 -1 14 C-1.99 15.485 -1.99 15.485 -3 17 C-3.25 10.375 -3.25 10.375 -1 7 C-2.32 6.67 -3.64 6.34 -5 6 C-4.34 6 -3.68 6 -3 6 C-3.33 4.68 -3.66 3.36 -4 2 C-3.01 2 -2.02 2 -1 2 C-0.67 1.34 -0.34 0.68 0 0 Z " fill="#6B5E81" transform="translate(277,262)"/>
<path d="M0 0 C0.33 0 0.66 0 1 0 C1.309375 1.093125 1.61875 2.18625 1.9375 3.3125 C2.58337897 5.55407994 3.2623117 7.7869351 4 10 C3.38125 10.103125 2.7625 10.20625 2.125 10.3125 C-0.36526484 10.87525373 -0.36526484 10.87525373 -2 14 C-2.67258667 16.33163378 -3.33847444 18.6652039 -4 21 C-4.93376749 23.36891753 -5.95656528 25.67598631 -7 28 C-8.49545905 25.0090819 -7.34011578 23.26252077 -6.34765625 20.1171875 C-5.98349609 18.95058594 -5.61933594 17.78398437 -5.24414062 16.58203125 C-4.65922852 14.74705078 -4.65922852 14.74705078 -4.0625 12.875 C-3.67642578 11.64394531 -3.29035156 10.41289062 -2.89257812 9.14453125 C-1.93492483 6.09422815 -0.97046595 3.04624619 0 0 Z " fill="#5823CA" transform="translate(196,184)"/>
<path d="M0 0 C1.30284396 3.92590313 0.32518005 6.05947521 -1.2421875 9.84375 C-2.01287597 12.03663679 -2.30184331 13.94104377 -2.5 16.25 C-3.02149646 20.16122348 -3.70088721 21.03031264 -6 24 C-6.72481084 27.65274469 -6.72481084 27.65274469 -7 31 C-7.99 31.33 -8.98 31.66 -10 32 C-8.5591436 24.72746691 -6.36620826 17.9137634 -3.875 10.9375 C-3.50246094 9.88111328 -3.12992187 8.82472656 -2.74609375 7.73632812 C-1.83534623 5.15587683 -0.91990295 2.57719856 0 0 Z " fill="#5729C3" transform="translate(302,199)"/>
<path d="M0 0 C1.40472907 5.3154948 1.31812332 8.92910524 -1 14 C-1.66 14 -2.32 14 -3 14 C-3.0825 14.61875 -3.165 15.2375 -3.25 15.875 C-4 18 -4 18 -6.0625 19.25 C-6.701875 19.4975 -7.34125 19.745 -8 20 C-8.66 18.68 -9.32 17.36 -10 16 C-9.05125 15.4225 -8.1025 14.845 -7.125 14.25 C-1.86196693 10.46061619 -1.41966339 6.08427168 0 0 Z " fill="#53416C" transform="translate(183,316)"/>
<path d="M0 0 C1.32 0 2.64 0 4 0 C3.04600148 6.0045789 1.90252323 11.72233216 -0.13671875 17.453125 C-1.98158083 22.89588552 -3.44964742 28.46752354 -5 34 C-5.33 34 -5.66 34 -6 34 C-5.67 30.37 -5.34 26.74 -5 23 C-4.34 23 -3.68 23 -3 23 C-2.87625 22.195625 -2.7525 21.39125 -2.625 20.5625 C-2.15187365 17.86567978 -1.58598654 15.2787357 -0.9375 12.625 C0.05003587 8.3164176 0.16035666 4.40980805 0 0 Z " fill="#5427BE" transform="translate(186,292)"/>
<path d="M0 0 C1 2 1 2 0 5.5 C-1.47476499 8.76894914 -1.86573445 8.94385259 -5.4375 10.4375 C-9 11 -9 11 -13 11 C-12.34 8.03 -11.68 5.06 -11 2 C-10.67 2 -10.34 2 -10 2 C-9.67 3.65 -9.34 5.3 -9 7 C-8.01 7.33 -7.02 7.66 -6 8 C-5.34 7.34 -4.68 6.68 -4 6 C-4.3185177 3.89179203 -4.3185177 3.89179203 -5 2 C-4.01 2.33 -3.02 2.66 -2 3 C-1.34 2.01 -0.68 1.02 0 0 Z " fill="#9E95A7" transform="translate(110,248)"/>
<path d="M0 0 C0.33 0 0.66 0 1 0 C1.53980982 5.93790798 0.00150835 10.52588424 -1.9765625 16.109375 C-3.1335232 19.37712661 -4.08835673 22.65730802 -5 26 C-5.66 26 -6.32 26 -7 26 C-5.86463484 16.74762125 -3.35112413 8.64641187 0 0 Z " fill="#5A24C9" transform="translate(286,246)"/>
<path d="M0 0 C1.60279613 2.61508842 2.15622322 4.31809133 1.46484375 7.3359375 C0.70194637 9.58559768 -0.10792309 11.79858439 -1 14 C-1.66 14 -2.32 14 -3 14 C-3.66 12.35 -4.32 10.7 -5 9 C-4.34 9 -3.68 9 -3 9 C-3.66 7.02 -4.32 5.04 -5 3 C-2.25 0 -2.25 0 0 0 Z " fill="#6B6A6A" transform="translate(93,299)"/>
<path d="M0 0 C0.33 0 0.66 0 1 0 C1.31577223 5.99967238 0.51495439 9.44614238 -2 15 C-2.25390222 17.79340157 -2.25390222 17.79340157 -2 20 C-2.99 20.33 -3.98 20.66 -5 21 C-5 21.66 -5 22.32 -5 23 C-5.66 23 -6.32 23 -7 23 C-4.97810834 15.21878058 -2.61369593 7.60227292 0 0 Z " fill="#5726C6" transform="translate(310,175)"/>
<path d="M0 0 C2.06449036 7.52540036 1.00222417 12.99481028 -2 20 C-2.66 20 -3.32 20 -4 20 C-4 20.66 -4 21.32 -4 22 C-4.66 22 -5.32 22 -6 22 C-4.20645194 14.59684417 -2.26858827 7.27235389 0 0 Z " fill="#5726CB" transform="translate(181,234)"/>
<path d="M0 0 C0.66 0 1.32 0 2 0 C2 1.65 2 3.3 2 5 C2.66 5 3.32 5 4 5 C4.2475 6.11375 4.495 7.2275 4.75 8.375 C5.57983647 11.77251886 6.73921696 14.85357687 8.125 18.0625 C9.90397224 22.32544459 10.39849244 25.4173369 10 30 C8.08176596 27.12264894 7.14349213 24.81756654 6.0546875 21.5625 C5.52294922 19.97308594 5.52294922 19.97308594 4.98046875 18.3515625 C4.61566406 17.24554688 4.25085938 16.13953125 3.875 15 C3.50246094 13.89398438 3.12992188 12.78796875 2.74609375 11.6484375 C2.21822266 10.05902344 2.21822266 10.05902344 1.6796875 8.4375 C1.35726074 7.46683594 1.03483398 6.49617187 0.70263672 5.49609375 C0 3 0 3 0 0 Z " fill="#5B2EC5" transform="translate(223,226)"/>
<path d="M0 0 C1.60546875 1.75 1.60546875 1.75 3.1875 4 C3.71730469 4.7425 4.24710938 5.485 4.79296875 6.25 C5.19128906 6.8275 5.58960938 7.405 6 8 C3.06552319 8.34934248 0.85632498 8.51495218 -1.734375 6.95703125 C-3.375 5.625 -3.375 5.625 -6 3 C-6 2.34 -6 1.68 -6 1 C-3 0 -3 0 0 0 Z " fill="#8553EE" transform="translate(158,324)"/>
<path d="M0 0 C1.98 0.99 1.98 0.99 4 2 C4 5.3 4 8.6 4 12 C4.66 12 5.32 12 6 12 C6.36463732 13.74784829 6.7163078 15.49840502 7.0625 17.25 C7.25972656 18.22453125 7.45695312 19.1990625 7.66015625 20.203125 C7.98993859 22.91719577 7.73518293 24.42565453 7 27 C5.82419832 23.25280224 4.66095767 19.50182075 3.5 15.75 C3.16613281 14.68652344 2.83226563 13.62304688 2.48828125 12.52734375 C2.17246094 11.50253906 1.85664062 10.47773438 1.53125 9.421875 C1.23798828 8.47924805 0.94472656 7.53662109 0.64257812 6.56542969 C0 4 0 4 0 0 Z " fill="#8B5EE8" transform="translate(113,204)"/>
<path d="M0 0 C0.66 0.33 1.32 0.66 2 1 C1.67 2.65 1.34 4.3 1 6 C-0.32 6.33 -1.64 6.66 -3 7 C-2.67 8.65 -2.34 10.3 -2 12 C-2.99 11.67 -3.98 11.34 -5 11 C-5.94921875 8.71484375 -5.94921875 8.71484375 -6.6875 5.9375 C-6.93886719 5.01839844 -7.19023437 4.09929687 -7.44921875 3.15234375 C-7.63097656 2.44207031 -7.81273437 1.73179687 -8 1 C-7.34 1 -6.68 1 -6 1 C-5.67 1.66 -5.34 2.32 -5 3 C-4.34 2.34 -3.68 1.68 -3 1 C-2.67 1.66 -2.34 2.32 -2 3 C-1.34 2.01 -0.68 1.02 0 0 Z " fill="#E8E6E7" transform="translate(137,176)"/>
<path d="M0 0 C0.33 0.66 0.66 1.32 1 2 C1.99 2.33 2.98 2.66 4 3 C0.13170974 6.63384843 -2.66513898 7.90640595 -8 8 C-11.4375 6.5625 -11.4375 6.5625 -14 5 C-13.34 4.67 -12.68 4.34 -12 4 C-11.01 4.33 -10.02 4.66 -9 5 C-3.55736744 3.97418332 -3.55736744 3.97418332 0 0 Z " fill="#8258E5" transform="translate(71,325)"/>
<path d="M0 0 C0.33 0 0.66 0 1 0 C1.19620767 2.06168985 1.38160753 4.12440998 1.5625 6.1875 C1.66691406 7.33605469 1.77132813 8.48460937 1.87890625 9.66796875 C1.98859985 12.68631199 1.74002389 15.08923936 1 18 C1.99 17.67 2.98 17.34 4 17 C4.28875 17.61875 4.5775 18.2375 4.875 18.875 C5.93720042 21.13325765 5.93720042 21.13325765 8 23 C8 23.66 8 24.32 8 25 C7.401875 24.690625 6.80375 24.38125 6.1875 24.0625 C3.91043228 22.89790296 3.91043228 22.89790296 1 22 C-0.20029908 19.59940183 -0.11459743 18.10639351 -0.09765625 15.4296875 C-0.09443359 14.53378906 -0.09121094 13.63789063 -0.08789062 12.71484375 C-0.07951172 11.77769531 -0.07113281 10.84054687 -0.0625 9.875 C-0.05798828 8.93011719 -0.05347656 7.98523438 -0.04882812 7.01171875 C-0.03702357 4.67441613 -0.02055759 2.33723939 0 0 Z " fill="#76C86E" transform="translate(376,294)"/>
<path d="M0 0 C2.16099373 2.16099373 2.71563716 3.5210418 3.6875 6.375 C3.95949219 7.14585937 4.23148437 7.91671875 4.51171875 8.7109375 C5.04278009 11.20055308 4.81115526 12.61553018 4 15 C3.54625 14.195625 3.0925 13.39125 2.625 12.5625 C1.25274335 9.91143428 1.25274335 9.91143428 -1 9 C-1 10.65 -1 12.3 -1 14 C-1.66 14 -2.32 14 -3 14 C-2.48594831 9.03083364 -1.76615118 4.70973649 0 0 Z " fill="#D2C4E4" transform="translate(112,206)"/>
<path d="M0 0 C1.41265059 3.79374718 0.5530586 6.2950161 -0.65234375 10.078125 C-1.01650391 11.23828125 -1.38066406 12.3984375 -1.75585938 13.59375 C-2.14580078 14.8003125 -2.53574219 16.006875 -2.9375 17.25 C-3.32357422 18.47203125 -3.70964844 19.6940625 -4.10742188 20.953125 C-5.06253858 23.97176544 -6.0270364 26.987074 -7 30 C-7.33 30 -7.66 30 -8 30 C-7.19500136 23.96251023 -6.11517502 17.98729887 -5 12 C-4.34 12 -3.68 12 -3 12 C-2.80083984 10.82630859 -2.80083984 10.82630859 -2.59765625 9.62890625 C-2.42105469 8.61699219 -2.24445313 7.60507813 -2.0625 6.5625 C-1.88847656 5.55316406 -1.71445313 4.54382813 -1.53515625 3.50390625 C-1 1 -1 1 0 0 Z " fill="#5D29C8" transform="translate(208,228)"/>
<path d="M0 0 C0.66 0.33 1.32 0.66 2 1 C2.6328125 2.99609375 2.6328125 2.99609375 3.125 5.4375 C3.29257812 6.24058594 3.46015625 7.04367188 3.6328125 7.87109375 C4 10 4 10 4 12 C3.34 12 2.68 12 2 12 C2 10.68 2 9.36 2 8 C1.34 8 0.68 8 0 8 C-0.66 9.32 -1.32 10.64 -2 12 C-2.33 8.7 -2.66 5.4 -3 2 C-2.01 1.34 -1.02 0.68 0 0 Z " fill="#959595" transform="translate(268,234)"/>
<path d="M0 0 C0.74507812 0.00902344 1.49015625 0.01804688 2.2578125 0.02734375 C4.08868059 0.05081642 5.91938238 0.08668475 7.75 0.125 C7.75 0.455 7.75 0.785 7.75 1.125 C6.23019531 1.18107422 6.23019531 1.18107422 4.6796875 1.23828125 C3.32809061 1.30398388 1.97652971 1.37042971 0.625 1.4375 C-0.37273437 1.47133789 -0.37273437 1.47133789 -1.390625 1.50585938 C-6.00917371 1.75489877 -9.26375105 2.80900178 -13.25 5.125 C-12.92 7.105 -12.59 9.085 -12.25 11.125 C-13.24 10.795 -14.23 10.465 -15.25 10.125 C-16.5441742 11.35380216 -16.5441742 11.35380216 -18.25 14.125 C-17.99986131 9.8726422 -17.68113402 7.64935219 -14.9375 4.3125 C-9.95474932 0.25677271 -6.36475103 -0.14618686 0 0 Z " fill="#855BDB" transform="translate(113.25,163.875)"/>
<path d="M0 0 C4.5349559 6.80243385 6.15692888 14.1280878 8 22 C8.33073867 23.33397932 8.66292688 24.66760719 9 26 C8.01 25.67 7.02 25.34 6 25 C3.43593969 19.41939816 2.91670671 13.026859 2 7 C1.34 7 0.68 7 0 7 C0 4.69 0 2.38 0 0 Z " fill="#845CD8" transform="translate(155,256)"/>
<path d="M0 0 C1.57534399 4.05994692 0.51161586 7.88314972 -0.3125 12 C-0.44333984 12.7115625 -0.57417969 13.423125 -0.70898438 14.15625 C-1.39559645 17.71203816 -2.13531342 20.87318932 -4 24 C-4.66 24 -5.32 24 -6 24 C-5.59489242 21.096729 -5.19369172 18.46486013 -4.0625 15.75 C-2.74000614 12.32707473 -2.12716142 8.90638192 -1.46484375 5.3046875 C-1 3 -1 3 0 0 Z " fill="#5C2AC7" transform="translate(174,258)"/>
<path d="M0 0 C0.33 0 0.66 0 1 0 C1.9765625 6.0546875 1.9765625 6.0546875 2 8 C1.34 8.66 0.68 9.32 0 10 C-0.859137 12.09267329 -0.859137 12.09267329 -1.5625 14.4375 C-1.81128906 15.21996094 -2.06007813 16.00242188 -2.31640625 16.80859375 C-2.54199219 17.53175781 -2.76757812 18.25492188 -3 19 C-3.33 19.99 -3.66 20.98 -4 22 C-4.66 22 -5.32 22 -6 22 C-4.20645194 14.59684417 -2.26858827 7.27235389 0 0 Z " fill="#885CE1" transform="translate(82,218)"/>
<path d="M0 0 C0.33 0 0.66 0 1 0 C1 1.98 1 3.96 1 6 C1.66 6.33 2.32 6.66 3 7 C2.360625 7.495 1.72125 7.99 1.0625 8.5 C-1.13453377 11.16307123 -1.26572006 11.80060239 -1.5 15.0625 C-2 19 -2 19 -4.03125 20.74609375 C-4.6809375 21.15988281 -5.330625 21.57367188 -6 22 C-4.20645194 14.59684417 -2.26858827 7.27235389 0 0 Z " fill="#845BDF" transform="translate(60,292)"/>
<path d="M0 0 C-3.00725261 2.00483508 -3.64207145 2.19166545 -7 2.3125 C-9.10541371 2.47697916 -9.10541371 2.47697916 -11 3 C-12.98922073 5.23197129 -12.98922073 5.23197129 -14 8 C-14.65991449 9.33668811 -15.32540878 10.67065847 -16 12 C-16.08096803 10.54257537 -16.13917774 9.08387193 -16.1875 7.625 C-16.22230469 6.81289063 -16.25710937 6.00078125 -16.29296875 5.1640625 C-16.19628906 4.44992187 -16.09960938 3.73578125 -16 3 C-10.85913339 -0.42724441 -5.99202204 -0.1015597 0 0 Z " fill="#845CD9" transform="translate(101,284)"/>
<path d="M0 0 C1.32 0.33 2.64 0.66 4 1 C3.9071875 2.0209375 3.9071875 2.0209375 3.8125 3.0625 C3.84361351 6.17418172 3.84361351 6.17418172 5.5 9.4375 C6.99700976 12.99289819 7.2778626 15.20254452 7 19 C4.85357551 15.78036326 3.64118646 12.55570141 2.375 8.9375 C2.14554688 8.30005859 1.91609375 7.66261719 1.6796875 7.00585938 C0 2.261742 0 2.261742 0 0 Z " fill="#9A8AB2" transform="translate(150,240)"/>
<path d="M0 0 C3.42988642 1.41926335 4.9972831 2.88928647 7 6 C7.82891522 8.17993937 8.57475877 10.39267265 9.25 12.625 C9.60578125 13.77226562 9.9615625 14.91953125 10.328125 16.1015625 C11 19 11 19 10 21 C7.27835324 18.27835324 6.89427524 15.70485455 6 12 C6 10.68 6 9.36 6 8 C5.34 8 4.68 8 4 8 C3.71125 7.195625 3.4225 6.39125 3.125 5.5625 C2.26737432 2.8673532 2.26737432 2.8673532 0 2 C0 1.34 0 0.68 0 0 Z " fill="#8A62DF" transform="translate(121,165)"/>
<path d="M0 0 C0.68835938 0.01353516 1.37671875 0.02707031 2.0859375 0.04101562 C3.76597001 0.0760163 5.4455935 0.12981046 7.125 0.1875 C7.125 0.5175 7.125 0.8475 7.125 1.1875 C2.505 1.1875 -2.115 1.1875 -6.875 1.1875 C-6.875 2.1775 -6.875 3.1675 -6.875 4.1875 C-11.33 5.6725 -11.33 5.6725 -15.875 7.1875 C-12.40129863 0.24009726 -7.27173172 -0.27480381 0 0 Z " fill="#5626C7" transform="translate(216.875,163.8125)"/>
<path d="M0 0 C0 0.99 0 1.98 0 3 C-3.9669578 6.85676453 -6.86793725 7.25650953 -12.375 7.25 C-14.25076302 7.1861054 -16.12632538 7.10914609 -18 7 C-17.01 6.67 -16.02 6.34 -15 6 C-14.67 5.01 -14.34 4.02 -14 3 C-13.175 3.2475 -12.35 3.495 -11.5 3.75 C-6.78555611 4.08674599 -3.97885024 2.35297489 0 0 Z " fill="#582CBC" transform="translate(179,326)"/>
<path d="M0 0 C7.59 0 15.18 0 23 0 C23 0.99 23 1.98 23 3 C20.69 3.33 18.38 3.66 16 4 C16 3.01 16 2.02 16 1 C10.72 1 5.44 1 0 1 C0 0.67 0 0.34 0 0 Z " fill="#6679B3" transform="translate(352,247)"/>
<path d="M0 0 C1.19872272 3.59616816 0.72500287 4.28921639 -0.8125 7.625 C-1.34810547 8.81996094 -1.34810547 8.81996094 -1.89453125 10.0390625 C-3 12 -3 12 -5 13 C-5.33 11.68 -5.66 10.36 -6 9 C-6.99 9 -7.98 9 -9 9 C-7.38216989 7.22038688 -6.14516309 6.06598322 -3.9375 5.0625 C-1.54421293 3.75005225 -0.99594253 2.48985633 0 0 Z " fill="#5720CF" transform="translate(287,320)"/>
<path d="M0 0 C0.33 0 0.66 0 1 0 C1.02887814 3.47914941 1.04675687 6.95826831 1.0625 10.4375 C1.07087891 11.43072266 1.07925781 12.42394531 1.08789062 13.44726562 C1.09111328 14.39150391 1.09433594 15.33574219 1.09765625 16.30859375 C1.10289307 17.18314209 1.10812988 18.05769043 1.11352539 18.95874023 C1 21 1 21 0 22 C-2.33944736 21.71269945 -4.6739143 21.38063221 -7 21 C-7 20.34 -7 19.68 -7 19 C-4.66666667 19 -2.33333333 19 0 19 C0 12.73 0 6.46 0 0 Z " fill="#77CC69" transform="translate(399,294)"/>
<path d="M0 0 C1.32 0.33 2.64 0.66 4 1 C3.25 7.625 3.25 7.625 1 11 C-0.625 9.4375 -0.625 9.4375 -2 7 C-1.1875 3.25 -1.1875 3.25 0 0 Z " fill="#848383" transform="translate(203,276)"/>
<path d="M0 0 C0.66 0.66 1.32 1.32 2 2 C2.66 1.67 3.32 1.34 4 1 C4.33 1.99 4.66 2.98 5 4 C3.68 5.32 2.36 6.64 1 8 C-0.32 7.34 -1.64 6.68 -3 6 C-1.125 1.125 -1.125 1.125 0 0 Z " fill="#0CBB64" transform="translate(444,262)"/>
<path d="M0 0 C0.33 0 0.66 0 1 0 C1.1921227 5.47549707 0.99186369 9.86308839 -1 15 C-1.99 15.33 -2.98 15.66 -4 16 C-3.39891424 10.34979382 -1.92471317 5.33835539 0 0 Z " fill="#C1B1D6" transform="translate(108,220)"/>
<path d="M0 0 C1.1700097 3.91736581 0.69584017 6.97959015 0 11 C-0.66 11 -1.32 11 -2 11 C-2 13.64 -2 16.28 -2 19 C-2.99 19.33 -3.98 19.66 -5 20 C-3.76583013 13.17576662 -2.1084005 6.60632156 0 0 Z " fill="#5727C6" transform="translate(187,214)"/>
<path d="M0 0 C2 1 2 1 2.81640625 2.75 C4.62503425 8.20429176 5.54520109 13.26953375 6 19 C4.00224127 16.00336191 3.01002585 13.46337374 1.875 10.0625 C1.52179688 9.02222656 1.16859375 7.98195312 0.8046875 6.91015625 C0 4 0 4 0 0 Z " fill="#BBADD3" transform="translate(141,210)"/>
<path d="M0 0 C0.66 0 1.32 0 2 0 C2 1.32 2 2.64 2 4 C3.65 4 5.3 4 7 4 C6.67 5.98 6.34 7.96 6 10 C5.01 10 4.02 10 3 10 C2.49596232 8.70990357 1.99690074 7.41786211 1.5 6.125 C1.2215625 5.40570313 0.943125 4.68640625 0.65625 3.9453125 C0 2 0 2 0 0 Z " fill="#D6CCE6" transform="translate(133,188)"/>
<path d="M0 0 C3.32127975 2.59531696 3.58536939 5.05324174 4.125 9.125 C4.34096333 12.87922063 4.34096333 12.87922063 6 16 C6.04080783 17.99958364 6.04254356 20.00045254 6 22 C5.67 22 5.34 22 5 22 C0.59225513 7.40318907 0.59225513 7.40318907 0 0 Z " fill="#877B96" transform="translate(157,256)"/>
<path d="M0 0 C1.10960573 3.32881718 0.9412896 3.87364252 -0.21484375 7.01171875 C-0.48876953 7.76904297 -0.76269531 8.52636719 -1.04492188 9.30664062 C-1.33947266 10.09232422 -1.63402344 10.87800781 -1.9375 11.6875 C-2.22818359 12.48478516 -2.51886719 13.28207031 -2.81835938 14.10351562 C-3.53739302 16.07201757 -4.26763703 18.03641812 -5 20 C-5.33 20 -5.66 20 -6 20 C-5.505 15.545 -5.505 15.545 -5 11 C-4.34 11 -3.68 11 -3 11 C-2.86722656 10.28972656 -2.73445313 9.57945312 -2.59765625 8.84765625 C-2.42105469 7.92855469 -2.24445313 7.00945312 -2.0625 6.0625 C-1.88847656 5.14597656 -1.71445312 4.22945312 -1.53515625 3.28515625 C-1 1 -1 1 0 0 Z " fill="#5427C5" transform="translate(316,235)"/>
<path d="M0 0 C0.33 1.32 0.66 2.64 1 4 C-3.75 8 -3.75 8 -6 8 C-5.67 5.69 -5.34 3.38 -5 1 C-4.34 1.33 -3.68 1.66 -3 2 C-2.01 1.34 -1.02 0.68 0 0 Z " fill="#525151" transform="translate(190,328)"/>
<path d="M0 0 C0.33 0 0.66 0 1 0 C1.3910939 9.97289448 1.3910939 9.97289448 -1 14 C-1.99 14.33 -2.98 14.66 -4 15 C-3.52229477 13.06213915 -3.04278429 11.12472326 -2.5625 9.1875 C-2.29566406 8.10855469 -2.02882812 7.02960938 -1.75390625 5.91796875 C-1.23922588 3.9259157 -0.65062825 1.95188476 0 0 Z " fill="#AE9DCD" transform="translate(208,232)"/>
<path d="M0 0 C2 1 2 1 2.81640625 2.78515625 C4.48796096 7.88733632 5.51370837 12.65079202 6 18 C3.98996365 14.98494548 3.00828459 12.42503788 1.875 9 C1.52179688 7.948125 1.16859375 6.89625 0.8046875 5.8125 C0 3 0 3 0 0 Z " fill="#CEBBEC" transform="translate(237,187)"/>
<path d="M0 0 C0.33 0 0.66 0 1 0 C0.46148032 5.27749285 -0.77343836 9.25645564 -3 14 C-4.24506944 10.40313272 -3.91681587 7.66726348 -3 4 C-1.5 1.625 -1.5 1.625 0 0 Z " fill="#8357DE" transform="translate(79,313)"/>
<path d="M0 0 C0.33 0 0.66 0 1 0 C0.36678379 5.82558915 -0.81468106 11.54193068 -3 17 C-3.66 17.33 -4.32 17.66 -5 18 C-4.0122936 11.57409836 -2.86390108 5.85797948 0 0 Z " fill="#665583" transform="translate(84,302)"/>
<path d="M0 0 C0.33 0 0.66 0 1 0 C1.125 6.75 1.125 6.75 0 9 C-0.66 9 -1.32 9 -2 9 C-2 9.66 -2 10.32 -2 11 C-2.99 10.67 -3.98 10.34 -5 10 C-3.35 6.7 -1.7 3.4 0 0 Z " fill="#B8AFC8" transform="translate(117,220)"/>
<path d="M0 0 C0.33 0.66 0.66 1.32 1 2 C1.66 2 2.32 2 3 2 C3.12117187 2.59167969 3.24234375 3.18335938 3.3671875 3.79296875 C4.26744643 8.03803585 5.20456621 12.02439661 7 16 C6.01 16.33 5.02 16.66 4 17 C3.32635339 14.91891315 2.66133202 12.8350329 2 10.75 C1.62875 9.58984375 1.2575 8.4296875 0.875 7.234375 C0 4 0 4 0 0 Z " fill="#5F2AD0" transform="translate(218,208)"/>
<path d="M0 0 C2.0625 1.75 2.0625 1.75 4 4 C3.9375 6.1875 3.9375 6.1875 3 8 C2.01 8.33 1.02 8.66 0 9 C-0.98150241 6.05549278 -1.1613058 4.06481021 -1 1 C-0.67 0.67 -0.34 0.34 0 0 Z " fill="#CECDCD" transform="translate(242,191)"/>
<path d="M0 0 C2.28814723 2.28814723 2.75451161 3.80751622 3.6875 6.875 C3.95949219 7.73867187 4.23148438 8.60234375 4.51171875 9.4921875 C5.01692938 12.08694932 4.85561171 13.530785 4 16 C1 9.375 1 9.375 1 6 C0.34 6 -0.32 6 -1 6 C-0.67 4.02 -0.34 2.04 0 0 Z " fill="#CCB3F1" transform="translate(216,206)"/>
<path d="M0 0 C2.86724686 0.57344937 3.8614515 0.8614515 6 3 C5.67 3.99 5.34 4.98 5 6 C3.02 6 1.04 6 -1 6 C-0.67 4.02 -0.34 2.04 0 0 Z " fill="#0899AD" transform="translate(393,202)"/>
<path d="M0 0 C0.556875 0.226875 1.11375 0.45375 1.6875 0.6875 C1.0275 0.6875 0.3675 0.6875 -0.3125 0.6875 C-0.539375 1.30625 -0.76625 1.925 -1 2.5625 C-2.70566009 5.3240449 -4.28222909 5.70266195 -7.3125 6.6875 C-8.3025 7.1825 -8.3025 7.1825 -9.3125 7.6875 C-8.35178241 4.45599539 -7.61838515 2.92898827 -4.9375 0.8125 C-2.3125 -0.3125 -2.3125 -0.3125 0 0 Z " fill="#5822CD" transform="translate(320.3125,167.3125)"/>
<path d="M0 0 C2.12508244 3.18762365 2.5020163 5.26512223 3 9 C2.01 9.495 2.01 9.495 1 10 C0.34 9.34 -0.32 8.68 -1 8 C-1.99 8 -2.98 8 -4 8 C-4 6 -4 6 -2 4 C-1.34 3.67 -0.68 3.34 0 3 C0 2.01 0 1.02 0 0 Z " fill="#8E8D92" transform="translate(165,245)"/>
<path d="M0 0 C1.134375 0.020625 2.26875 0.04125 3.4375 0.0625 C1.4575 3.0325 1.4575 3.0325 -0.5625 6.0625 C-1.5525 5.7325 -2.5425 5.4025 -3.5625 5.0625 C-4.3125 3.0625 -4.3125 3.0625 -4.5625 1.0625 C-3.5625 0.0625 -3.5625 0.0625 0 0 Z " fill="#F1F0F4" transform="translate(235.5625,162.9375)"/>
<path d="M0 0 C1.14373642 3.98998124 0.93116313 6.9172078 0 11 C-2.0625 13.9375 -2.0625 13.9375 -4 16 C-3.27275406 10.47293087 -1.66554027 5.30039859 0 0 Z " fill="#947EB8" transform="translate(201,256)"/>
<path d="M0 0 C1.32 0 2.64 0 4 0 C3.74500159 1.79398884 3.47046186 3.58520875 3.1875 5.375 C3.03667969 6.37273437 2.88585937 7.37046875 2.73046875 8.3984375 C2 11 2 11 -1 13 C-0.9278125 12.31292969 -0.855625 11.62585938 -0.78125 10.91796875 C-0.6884375 10.01691406 -0.595625 9.11585938 -0.5 8.1875 C-0.4071875 7.29417969 -0.314375 6.40085937 -0.21875 5.48046875 C0.04392401 2.91694901 0.04392401 2.91694901 0 0 Z " fill="#591FCF" transform="translate(186,292)"/>
<path d="M0 0 C0.66 0.33 1.32 0.66 2 1 C1.01 3.97 0.02 6.94 -1 10 C-1.99 9.67 -2.98 9.34 -4 9 C-3.46930939 5.17902761 -2.50298434 2.93828597 0 0 Z " fill="#6F6F72" transform="translate(96,293)"/>
<path d="M0 0 C3.43772727 3.43772727 3.97127774 7.10960984 4.125 11.875 C4.08375 12.90625 4.0425 13.9375 4 15 C0.59141414 11.59141414 0.06991606 6.67798535 -0.125 2 C-0.08375 1.34 -0.0425 0.68 0 0 Z " fill="#8C7AA8" transform="translate(257,245)"/>
<path d="M0 0 C2.10827055 3.16240582 2.33817465 4.50657469 2.625 8.1875 C2.69976562 9.08855469 2.77453125 9.98960937 2.8515625 10.91796875 C2.90054688 11.60503906 2.94953125 12.29210937 3 13 C1.01987031 10.02980547 -0.6501925 7.30702837 -2 4 C-1.1875 1.625 -1.1875 1.625 0 0 Z " fill="#E2CDF6" transform="translate(231,165)"/>
<path d="M0 0 C0.66 0 1.32 0 2 0 C1.00956295 4.83628305 0.04301154 9.47618873 -2 14 C-3.25127906 10.45332822 -2.72285053 8.27746562 -1.5625 4.75 C-1.27503906 3.85796875 -0.98757813 2.9659375 -0.69140625 2.046875 C-0.46324219 1.37140625 -0.23507812 0.6959375 0 0 Z " fill="#5126C3" transform="translate(297,288)"/>
<path d="M0 0 C0.99 0 1.98 0 3 0 C3 1.65 3 3.3 3 5 C3.66 5 4.32 5 5 5 C5 7.64 5 10.28 5 13 C3.49439503 10.14589666 2.36783204 7.31875358 1.375 4.25 C0.98441406 3.05117187 0.98441406 3.05117187 0.5859375 1.828125 C0.39257812 1.22484375 0.19921875 0.6215625 0 0 Z " fill="#9A87B7" transform="translate(252,235)"/>
<path d="M0 0 C3 1 3 1 4.25 3.3125 C5.0275526 6.09873015 4.98726527 7.33438378 4 10 C3.34 9.67 2.68 9.34 2 9 C1.3671875 6.93359375 1.3671875 6.93359375 0.875 4.4375 C0.70742187 3.61121094 0.53984375 2.78492188 0.3671875 1.93359375 C0.24601563 1.29550781 0.12484375 0.65742188 0 0 Z " fill="#E1D3EC" transform="translate(234,178)"/>
<path d="M0 0 C-0.66 1.32 -1.32 2.64 -2 4 C-3.32 4 -4.64 4 -6 4 C-6.33 3.01 -6.66 2.02 -7 1 C-4 0 -4 0 0 0 Z " fill="#464146" transform="translate(180,331)"/>
<path d="M0 0 C5.2688172 7.90322581 5.2688172 7.90322581 4.6875 12.4375 C4.460625 12.953125 4.23375 13.46875 4 14 C3.34 11.69 2.68 9.38 2 7 C1.34 7 0.68 7 0 7 C0 4.69 0 2.38 0 0 Z " fill="#8664CE" transform="translate(155,256)"/>
<path d="M0 0 C-3.27301919 2.96909598 -5.38065762 3.34354794 -9.75 3.1875 C-11.22726563 3.14689453 -11.22726563 3.14689453 -12.734375 3.10546875 C-13.85585937 3.05326172 -13.85585937 3.05326172 -15 3 C-12.16163087 1.46417013 -9.52324478 0.51269491 -6.375 -0.1875 C-5.59898438 -0.36667969 -4.82296875 -0.54585937 -4.0234375 -0.73046875 C-2 -1 -2 -1 0 0 Z " fill="#825ED6" transform="translate(127,253)"/>
<path d="M0 0 C1.38076179 3.83544942 0.85712183 7.07152497 0 11 C-1.5625 12.9375 -1.5625 12.9375 -3 14 C-2.48594831 9.03083364 -1.76615118 4.70973649 0 0 Z " fill="#AD9ACD" transform="translate(103,236)"/>
<path d="M0 0 C2.16099373 2.16099373 2.71563716 3.5210418 3.6875 6.375 C3.95949219 7.14585937 4.23148437 7.91671875 4.51171875 8.7109375 C5.04278009 11.20055308 4.81115526 12.61553018 4 15 C3.80664062 14.36191406 3.61328125 13.72382813 3.4140625 13.06640625 C3.15367188 12.24011719 2.89328125 11.41382813 2.625 10.5625 C2.36976562 9.73878906 2.11453125 8.91507813 1.8515625 8.06640625 C1.19117773 5.82201984 1.19117773 5.82201984 -1 5 C-0.67 3.35 -0.34 1.7 0 0 Z " fill="#CEB6F5" transform="translate(112,206)"/>
<path d="M0 0 C0.66 0.33 1.32 0.66 2 1 C2.33 1.99 2.66 2.98 3 4 C3.66 4.66 4.32 5.32 5 6 C5 6.66 5 7.32 5 8 C3 7 1 6 -1 5 C-0.67 3.35 -0.34 1.7 0 0 Z " fill="#78D55A" transform="translate(379,311)"/>
<path d="M0 0 C0.66 0 1.32 0 2 0 C2 1.32 2 2.64 2 4 C2.99 3.67 3.98 3.34 5 3 C4.34 4.98 3.68 6.96 3 9 C2.34 9 1.68 9 1 9 C0.67 6.03 0.34 3.06 0 0 Z " fill="#775DA5" transform="translate(163,278)"/>
<path d="M0 0 C3.01111938 4.51667907 3.10067926 7.6639991 3 13 C2.01 13.495 2.01 13.495 1 14 C1.33 12.02 1.66 10.04 2 8 C1.34 8 0.68 8 0 8 C0 5.36 0 2.72 0 0 Z " fill="#7E7C82" transform="translate(168,255)"/>
<path d="M0 0 C1.32 0 2.64 0 4 0 C4 0.99 4 1.98 4 3 C4.66 3.33 5.32 3.66 6 4 C4.02 4.33 2.04 4.66 0 5 C-0.33 4.01 -0.66 3.02 -1 2 C-0.67 1.34 -0.34 0.68 0 0 Z " fill="#06BA6D" transform="translate(441,251)"/>
<path d="M0 0 C0.99 0 1.98 0 3 0 C3.93619813 3.15506142 4.1057123 5.96586502 4.0625 9.25 C4.05347656 10.14203125 4.04445313 11.0340625 4.03515625 11.953125 C4.02355469 12.62859375 4.01195312 13.3040625 4 14 C1.45814402 11.45814402 1.57195128 9.44550366 1.21875 5.9765625 C0.99118807 3.92037789 0.5791598 1.98569073 0 0 Z " fill="#88848D" transform="translate(259,249)"/>
<path d="M0 0 C-0.33 0.66 -0.66 1.32 -1 2 C-4.0625 2.625 -4.0625 2.625 -7 3 C-7.33 2.01 -7.66 1.02 -8 0 C-4.94736336 -0.98120464 -3.05263664 -0.98120464 0 0 Z " fill="#484746" transform="translate(77,333)"/>
<path d="M0 0 C1.60372657 4.00931642 0.38691773 7.05823382 -1 11 C-1.66 11.66 -2.32 12.32 -3 13 C-2.343621 8.51474352 -1.29925791 4.33085971 0 0 Z " fill="#634C88" transform="translate(187,303)"/>
<path d="M0 0 C0.33 0 0.66 0 1 0 C1.34615998 5.65394631 0.43425238 9.03006806 -2 14 C-3.32365626 10.02903122 -2.24318252 7.93674465 -1 4 C-0.65864073 2.66869885 -0.32074044 1.33641852 0 0 Z " fill="#78629E" transform="translate(171,264)"/>
<path d="M0 0 C0.25 6.625 0.25 6.625 -2 10 C-2 8.02 -2 6.04 -2 4 C-2.66 4 -3.32 4 -4 4 C-3.67 3.01 -3.34 2.02 -3 1 C-1 0 -1 0 0 0 Z " fill="#5720D4" transform="translate(319,225)"/>
<path d="M0 0 C2 4 2 4 1.3125 6.625 C0 9 0 9 -3 11 C-2.01 7.37 -1.02 3.74 0 0 Z " fill="#5625C8" transform="translate(200,171)"/>
<path d="M0 0 C1.37432457 3.81756824 0.67975039 7.07255329 0 11 C-0.66 11 -1.32 11 -2 11 C-2.33 11.66 -2.66 12.32 -3 13 C-2.343621 8.51474352 -1.29925791 4.33085971 0 0 Z " fill="#6D52A0" transform="translate(191,288)"/>
<path d="M0 0 C0.33 0 0.66 0 1 0 C1.08096803 1.45742463 1.13917774 2.91612807 1.1875 4.375 C1.22230469 5.18710937 1.25710937 5.99921875 1.29296875 6.8359375 C1.19628906 7.55007813 1.09960938 8.26421875 1 9 C0.01 9.66 -0.98 10.32 -2 11 C-1.125 3.375 -1.125 3.375 0 0 Z " fill="#5B1FD8" transform="translate(167,283)"/>
<path d="M0 0 C1.125 3.75 1.125 3.75 0 6 C-0.66 6 -1.32 6 -2 6 C-2.66 4.35 -3.32 2.7 -4 1 C-2.68 0.67 -1.36 0.34 0 0 Z " fill="#646265" transform="translate(92,307)"/>
<path d="M0 0 C0.33 0 0.66 0 1 0 C1.25 3.25 1.25 3.25 1 7 C-0.32 8.32 -1.64 9.64 -3 11 C-2.01 7.37 -1.02 3.74 0 0 Z " fill="#5521CB" transform="translate(276,277)"/>
<path d="M0 0 C0.66 1.32 1.32 2.64 2 4 C1.34 4.66 0.68 5.32 0 6 C-0.6425235 8.06874034 -0.6425235 8.06874034 -1 10 C-1.66 9.67 -2.32 9.34 -3 9 C-1.125 2.25 -1.125 2.25 0 0 Z " fill="#571CDC" transform="translate(190,209)"/>
<path d="M0 0 C0.99 0 1.98 0 3 0 C2.67 2.64 2.34 5.28 2 8 C0 6 0 6 -0.125 2.875 C-0.08375 1.92625 -0.0425 0.9775 0 0 Z " fill="#C7C3C6" transform="translate(243,199)"/>
<path d="M0 0 C0.66 0 1.32 0 2 0 C4.29633824 3.44450737 4.54016485 5.93812283 5 10 C4.34 10 3.68 10 3 10 C2.01 6.7 1.02 3.4 0 0 Z " fill="#E4D0FC" transform="translate(129,177)"/>
<path d="M0 0 C0.33 0 0.66 0 1 0 C1.26218749 3.14624993 1.24754367 4.61837017 -0.5 7.3125 C-1.2425 8.1478125 -1.2425 8.1478125 -2 9 C-2.125 5.625 -2.125 5.625 -2 2 C-1.34 1.34 -0.68 0.68 0 0 Z " fill="#736B76" transform="translate(276,270)"/>
<path d="M0 0 C0.66 0 1.32 0 2 0 C2.33 1.32 2.66 2.64 3 4 C1.35 4.33 -0.3 4.66 -2 5 C-1.125 1.125 -1.125 1.125 0 0 Z " fill="#878887" transform="translate(199,273)"/>
<path d="M0 0 C0.74955438 2.9982175 1.41070989 5.96936513 2 9 C0.68 9 -0.64 9 -2 9 C-1.34 6.03 -0.68 3.06 0 0 Z " fill="#A38CC8" transform="translate(99,250)"/>
<path d="M0 0 C1.32 0.99 2.64 1.98 4 3 C1.25 6.875 1.25 6.875 -1 8 C-0.67 5.36 -0.34 2.72 0 0 Z " fill="#9F94B6" transform="translate(203,248)"/>
<path d="M0 0 C1.46726798 3.81489674 0.43336419 6.29011622 -1 10 C-1.33 10 -1.66 10 -2 10 C-2 7.36 -2 4.72 -2 2 C-1.34 2 -0.68 2 0 2 C0 1.34 0 0.68 0 0 Z " fill="#5D29CC" transform="translate(211,218)"/>
<path d="M0 0 C0.99 0.33 1.98 0.66 3 1 C2.67 1.99 2.34 2.98 2 4 C1.34 4 0.68 4 0 4 C0 4.66 0 5.32 0 6 C-0.66 6 -1.32 6 -2 6 C-1.34 4.02 -0.68 2.04 0 0 Z " fill="#5920D1" transform="translate(305,192)"/>
<path d="" fill="#FFFFFF" transform="translate(0,0)"/>
<path d="" fill="#FFFFFF" transform="translate(0,0)"/>
<path d="" fill="#FFFFFF" transform="translate(0,0)"/>
<path d="" fill="#FFFFFF" transform="translate(0,0)"/>
<path d="" fill="#FFFFFF" transform="translate(0,0)"/>
<path d="" fill="#FFFFFF" transform="translate(0,0)"/>
<path d="" fill="#FFFFFF" transform="translate(0,0)"/>
<path d="" fill="#FFFFFF" transform="translate(0,0)"/>
<path d="" fill="#FFFFFF" transform="translate(0,0)"/>
<path d="" fill="#FFFFFF" transform="translate(0,0)"/>
<path d="" fill="#FFFFFF" transform="translate(0,0)"/>
<path d="" fill="#FFFFFF" transform="translate(0,0)"/>
<path d="" fill="#FFFFFF" transform="translate(0,0)"/>
<path d="" fill="#FFFFFF" transform="translate(0,0)"/>
<path d="" fill="#FFFFFF" transform="translate(0,0)"/>
<path d="" fill="#FFFFFF" transform="translate(0,0)"/>
<path d="" fill="#FFFFFF" transform="translate(0,0)"/>
<path d="" fill="#FFFFFF" transform="translate(0,0)"/>
<path d="" fill="#FFFFFF" transform="translate(0,0)"/>
<path d="" fill="#FFFFFF" transform="translate(0,0)"/>
<path d="" fill="#FFFFFF" transform="translate(0,0)"/>
<path d="" fill="#FFFFFF" transform="translate(0,0)"/>
<path d="" fill="#FFFFFF" transform="translate(0,0)"/>
<path d="" fill="#FFFFFF" transform="translate(0,0)"/>
<path d="" fill="#FFFFFF" transform="translate(0,0)"/>
<path d="" fill="#FFFFFF" transform="translate(0,0)"/>
<path d="" fill="#FFFFFF" transform="translate(0,0)"/>
<path d="" fill="#FFFFFF" transform="translate(0,0)"/>
<path d="" fill="#FFFFFF" transform="translate(0,0)"/>
<path d="" fill="#FFFFFF" transform="translate(0,0)"/>
<path d="" fill="#FFFFFF" transform="translate(0,0)"/>
<path d="" fill="#FFFFFF" transform="translate(0,0)"/>
<path d="" fill="#FFFFFF" transform="translate(0,0)"/>
<path d="" fill="#FFFFFF" transform="translate(0,0)"/>
<path d="" fill="#FFFFFF" transform="translate(0,0)"/>
<path d="" fill="#FFFFFF" transform="translate(0,0)"/>
<path d="" fill="#FFFFFF" transform="translate(0,0)"/>
<path d="" fill="#FFFFFF" transform="translate(0,0)"/>
<path d="" fill="#FFFFFF" transform="translate(0,0)"/>
<path d="" fill="#FFFFFF" transform="translate(0,0)"/>
<path d="" fill="#FFFFFF" transform="translate(0,0)"/>
<path d="" fill="#FFFFFF" transform="translate(0,0)"/>
<path d="" fill="#FFFFFF" transform="translate(0,0)"/>
<path d="" fill="#FFFFFF" transform="translate(0,0)"/>
<path d="" fill="#FFFFFF" transform="translate(0,0)"/>
<path d="" fill="#FFFFFF" transform="translate(0,0)"/>
<path d="" fill="#FFFFFF" transform="translate(0,0)"/>
<path d="" fill="#FFFFFF" transform="translate(0,0)"/>
<path d="" fill="#FFFFFF" transform="translate(0,0)"/>
<path d="" fill="#FFFFFF" transform="translate(0,0)"/>
<path d="" fill="#FFFFFF" transform="translate(0,0)"/>
<path d="" fill="#FFFFFF" transform="translate(0,0)"/>
<path d="" fill="#FFFFFF" transform="translate(0,0)"/>
<path d="" fill="#FFFFFF" transform="translate(0,0)"/>
<path d="" fill="#FFFFFF" transform="translate(0,0)"/>
<path d="" fill="#FFFFFF" transform="translate(0,0)"/>
<path d="" fill="#FFFFFF" transform="translate(0,0)"/>
<path d="" fill="#FFFFFF" transform="translate(0,0)"/>
<path d="" fill="#FFFFFF" transform="translate(0,0)"/>
<path d="" fill="#FFFFFF" transform="translate(0,0)"/>
<path d="" fill="#FFFFFF" transform="translate(0,0)"/>
<path d="" fill="#FFFFFF" transform="translate(0,0)"/>
<path d="" fill="#FFFFFF" transform="translate(0,0)"/>
<path d="" fill="#FFFFFF" transform="translate(0,0)"/>
<path d="" fill="#FFFFFF" transform="translate(0,0)"/>
<path d="" fill="#FFFFFF" transform="translate(0,0)"/>
<path d="" fill="#FFFFFF" transform="translate(0,0)"/>
<path d="" fill="#FFFFFF" transform="translate(0,0)"/>
</svg>
